<svg id="svg" version="1.1" xmlns="http://www.w3.org/2000/svg" xmlns:xlink="http://www.w3.org/1999/xlink" width="400" height="213.8438880706922" viewBox="0, 0, 400,213.8438880706922"><g id="svgg"><path id="path0" d="M200.240 29.565 C 199.814 29.767,199.339 29.935,199.185 29.939 C 199.031 29.943,198.965 30.043,199.037 30.160 C 199.110 30.278,198.971 30.374,198.729 30.374 C 198.487 30.374,198.289 30.471,198.289 30.588 C 198.289 30.883,197.489 31.658,197.184 31.658 C 197.046 31.658,196.994 31.718,197.068 31.792 C 197.142 31.866,197.062 32.262,196.890 32.674 C 196.511 33.581,196.418 45.258,196.791 45.027 C 196.962 44.921,197.115 45.621,196.967 45.829 C 196.946 45.858,197.283 46.267,197.715 46.738 C 198.147 47.209,198.501 47.666,198.502 47.754 C 198.502 47.842,198.635 47.914,198.797 47.914 C 198.959 47.914,199.212 48.059,199.358 48.235 C 199.767 48.727,261.414 48.722,261.822 48.230 C 261.971 48.051,262.140 47.951,262.198 48.009 C 262.413 48.224,263.102 47.670,263.102 47.280 C 263.102 47.023,263.277 46.850,263.583 46.806 L 264.064 46.738 264.128 39.572 C 264.190 32.715,264.121 30.995,263.788 31.044 C 263.351 31.109,263.102 30.982,263.102 30.695 C 263.102 30.519,262.968 30.374,262.804 30.374 C 262.640 30.374,262.450 30.230,262.383 30.053 C 262.315 29.877,262.024 29.733,261.736 29.733 C 261.448 29.733,261.179 29.633,261.139 29.512 C 260.993 29.075,201.165 29.127,200.240 29.565 M188.157 68.983 C 187.427 69.366,187.307 69.382,187.499 69.070 C 187.589 68.925,187.493 68.865,187.245 68.913 C 187.015 68.957,186.846 69.170,186.845 69.415 C 186.845 69.707,186.693 69.847,186.359 69.864 C 186.092 69.878,185.699 70.046,185.486 70.239 C 185.273 70.432,185.035 70.525,184.956 70.446 C 184.877 70.367,184.813 70.452,184.813 70.633 C 184.813 70.815,184.668 71.083,184.492 71.230 C 184.316 71.376,184.171 71.677,184.171 71.898 C 184.171 72.119,184.027 72.299,183.850 72.299 C 183.572 72.299,183.529 73.191,183.529 79.037 C 183.529 84.884,183.572 85.775,183.850 85.775 C 184.028 85.775,184.171 85.965,184.171 86.203 C 184.171 86.842,185.452 88.078,186.203 88.163 C 186.556 88.203,186.972 88.355,187.126 88.501 C 187.573 88.924,260.875 88.888,261.113 88.465 C 261.207 88.299,261.572 88.130,261.925 88.089 C 262.314 88.044,262.879 87.701,263.358 87.219 L 264.150 86.424 264.166 78.939 L 264.181 71.454 263.696 70.968 C 263.069 70.339,261.907 69.715,261.717 69.905 C 261.636 69.986,261.455 69.909,261.315 69.732 C 260.514 68.721,262.412 68.774,224.385 68.716 C 193.035 68.668,188.697 68.700,188.157 68.983 M186.602 109.625 C 186.531 109.809,186.213 109.947,185.859 109.947 C 185.504 109.947,185.241 110.061,185.241 110.217 C 185.241 110.365,185.000 110.667,184.706 110.888 C 184.412 111.109,184.171 111.413,184.171 111.563 C 184.171 111.713,184.051 111.876,183.904 111.925 C 183.459 112.073,183.397 125.775,183.842 125.775 C 184.023 125.775,184.171 125.920,184.171 126.096 C 184.171 126.273,184.316 126.417,184.492 126.417 C 184.668 126.417,184.801 126.489,184.788 126.578 C 184.633 127.553,181.759 127.487,224.052 127.487 C 253.481 127.487,263.328 127.425,263.443 127.240 C 263.543 127.077,263.493 127.046,263.295 127.149 C 263.130 127.234,263.259 127.097,263.583 126.843 L 264.171 126.381 264.171 118.945 C 264.171 111.101,264.107 110.588,263.130 110.588 C 262.997 110.588,262.912 110.468,262.941 110.321 C 262.971 110.170,262.737 110.024,262.406 109.986 C 262.072 109.947,261.818 109.787,261.818 109.614 C 261.818 109.139,186.784 109.150,186.602 109.625 M273.719 141.497 C 273.618 141.763,273.044 141.818,270.404 141.818 C 267.706 141.818,267.192 141.870,267.083 142.153 C 267.013 142.337,266.858 142.427,266.739 142.354 C 266.621 142.281,266.524 142.336,266.524 142.476 C 266.524 142.617,266.283 142.955,265.989 143.227 L 265.455 143.723 265.455 168.345 C 265.455 184.705,265.526 192.922,265.668 192.834 C 265.894 192.695,265.926 192.966,265.965 195.383 C 265.981 196.358,266.080 196.893,266.257 196.952 C 266.404 197.001,266.524 197.322,266.524 197.665 C 266.524 198.077,266.633 198.289,266.845 198.289 C 267.021 198.289,267.166 198.433,267.166 198.610 C 267.166 198.786,267.310 198.930,267.487 198.930 C 267.663 198.930,267.807 199.026,267.807 199.142 C 267.807 199.258,268.193 199.415,268.663 199.490 C 269.134 199.565,269.519 199.711,269.519 199.813 C 269.519 200.074,272.244 200.048,272.406 199.786 C 272.479 199.668,272.774 199.572,273.061 199.572 C 273.348 199.572,273.583 199.451,273.583 199.304 C 273.583 199.156,273.872 198.907,274.225 198.751 C 274.616 198.578,274.866 198.307,274.866 198.057 C 274.866 197.832,275.011 197.647,275.187 197.647 C 275.387 197.647,275.508 197.445,275.508 197.112 C 275.508 196.818,275.604 196.578,275.722 196.578 C 275.857 196.578,275.936 195.011,275.936 192.306 C 275.936 188.597,275.978 188.051,276.257 188.158 C 276.433 188.226,276.578 188.466,276.578 188.693 C 276.578 188.919,276.722 189.160,276.898 189.227 C 277.075 189.295,277.219 189.485,277.219 189.649 C 277.219 189.812,277.364 189.947,277.540 189.947 C 277.717 189.947,277.861 190.091,277.861 190.267 C 277.861 190.444,277.947 190.588,278.052 190.588 C 278.157 190.588,278.303 190.829,278.377 191.123 C 278.450 191.417,278.605 191.658,278.721 191.658 C 278.836 191.658,278.930 191.802,278.930 191.979 C 278.930 192.155,279.075 192.299,279.251 192.299 C 279.428 192.299,279.572 192.444,279.572 192.620 C 279.572 192.797,279.717 192.941,279.893 192.941 C 280.090 192.941,280.214 193.141,280.214 193.460 C 280.214 193.759,280.441 194.158,280.749 194.400 C 281.043 194.632,281.283 194.927,281.283 195.058 C 281.283 195.188,281.421 195.294,281.590 195.294 C 281.766 195.294,281.926 195.546,281.964 195.882 C 282.002 196.213,282.149 196.447,282.299 196.417 C 282.447 196.388,282.567 196.508,282.567 196.684 C 282.567 196.861,282.663 197.005,282.781 197.005 C 282.898 197.005,282.995 197.135,282.995 197.293 C 282.995 197.794,283.922 198.656,284.962 199.122 C 286.319 199.730,289.880 199.729,289.504 199.120 C 289.439 199.016,289.578 198.930,289.812 198.930 C 290.495 198.930,291.768 197.579,291.910 196.703 C 291.979 196.281,292.118 195.936,292.221 195.936 C 292.528 195.936,292.430 193.463,292.097 192.821 C 291.926 192.492,291.835 192.144,291.895 192.047 C 291.955 191.951,291.854 191.872,291.670 191.872 C 291.487 191.872,291.334 191.703,291.330 191.497 C 291.321 191.057,290.622 190.160,290.287 190.160 C 290.158 190.160,290.053 190.016,290.053 189.840 C 290.053 189.663,289.957 189.519,289.840 189.519 C 289.722 189.519,289.622 189.350,289.619 189.144 C 289.610 188.713,288.913 187.807,288.590 187.807 C 288.469 187.807,288.340 187.543,288.303 187.219 C 288.265 186.888,288.118 186.654,287.968 186.684 C 287.821 186.714,287.701 186.581,287.701 186.389 C 287.701 186.197,287.492 185.859,287.238 185.639 C 286.759 185.223,286.309 184.552,286.075 183.904 C 286.000 183.698,285.806 183.529,285.644 183.529 C 285.481 183.529,285.348 183.438,285.348 183.327 C 285.348 183.215,285.107 182.864,284.813 182.547 C 284.519 182.229,284.278 181.887,284.278 181.787 C 284.278 181.534,283.470 180.749,283.209 180.749 C 283.091 180.749,282.995 180.639,282.995 180.506 C 282.995 180.372,282.754 180.040,282.460 179.767 C 281.788 179.145,281.728 178.182,282.360 178.182 C 282.599 178.182,282.849 178.038,282.917 177.862 C 282.984 177.686,283.126 177.596,283.232 177.662 C 283.339 177.727,283.483 177.631,283.554 177.447 C 283.624 177.263,283.816 177.112,283.980 177.112 C 284.144 177.112,284.278 176.968,284.278 176.791 C 284.278 176.615,284.422 176.471,284.599 176.471 C 284.775 176.471,284.920 176.342,284.920 176.186 C 284.920 176.029,285.160 175.772,285.455 175.615 C 285.749 175.458,285.989 175.249,285.989 175.151 C 285.989 175.053,286.374 174.588,286.845 174.118 C 287.316 173.647,287.701 173.176,287.701 173.071 C 287.701 172.966,287.845 172.825,288.021 172.757 C 288.198 172.689,288.342 172.438,288.342 172.199 C 288.342 171.956,288.483 171.765,288.663 171.765 C 288.874 171.765,288.984 171.553,288.984 171.146 C 288.984 170.793,289.122 170.474,289.305 170.404 C 289.481 170.336,289.626 170.085,289.626 169.846 C 289.626 169.607,289.722 169.412,289.840 169.412 C 289.957 169.412,290.053 169.027,290.053 168.556 C 290.053 167.938,290.143 167.701,290.374 167.701 C 290.611 167.701,290.695 167.454,290.695 166.761 C 290.695 166.171,290.802 165.780,290.983 165.711 C 291.181 165.635,291.285 165.119,291.316 164.056 C 291.345 163.064,291.469 162.404,291.663 162.210 C 292.059 161.814,291.996 156.762,291.594 156.627 C 291.427 156.572,291.337 156.028,291.337 155.085 C 291.337 153.988,291.258 153.598,291.016 153.506 C 290.806 153.425,290.695 153.092,290.695 152.543 C 290.695 151.994,290.584 151.661,290.374 151.580 C 290.187 151.508,290.053 151.188,290.053 150.809 C 290.053 150.452,289.968 150.160,289.863 150.160 C 289.758 150.160,289.612 149.920,289.538 149.626 C 289.464 149.332,289.309 149.091,289.194 149.091 C 289.078 149.091,288.984 148.898,288.984 148.663 C 288.984 148.425,288.841 148.235,288.663 148.235 C 288.487 148.235,288.342 148.091,288.342 147.914 C 288.342 147.738,288.198 147.594,288.021 147.594 C 287.841 147.594,287.701 147.403,287.701 147.159 C 287.701 146.920,287.556 146.669,287.380 146.601 C 287.203 146.534,287.059 146.393,287.059 146.290 C 287.059 146.033,286.365 145.241,286.140 145.241 C 286.040 145.241,285.825 145.120,285.661 144.973 C 284.950 144.336,284.710 144.171,284.494 144.171 C 284.368 144.171,284.209 144.027,284.142 143.850 C 284.074 143.674,283.798 143.529,283.529 143.529 C 283.260 143.529,282.985 143.385,282.917 143.209 C 282.850 143.032,282.640 142.888,282.451 142.888 C 282.263 142.888,281.964 142.743,281.788 142.567 C 281.611 142.390,281.137 142.246,280.733 142.246 C 280.330 142.246,280.000 142.150,280.000 142.032 C 280.000 141.906,279.259 141.818,278.205 141.818 C 276.806 141.818,276.382 141.747,276.286 141.497 C 276.198 141.267,275.837 141.176,275.003 141.176 C 274.169 141.176,273.808 141.267,273.719 141.497 M343.316 141.497 C 343.316 141.761,342.935 141.818,341.176 141.818 C 339.921 141.818,339.037 141.905,339.037 142.028 C 339.037 142.143,338.797 142.298,338.504 142.372 C 338.211 142.445,338.024 142.592,338.089 142.697 C 338.154 142.802,338.083 142.888,337.932 142.888 C 337.564 142.888,336.043 144.618,336.043 145.037 C 336.043 145.220,335.947 145.465,335.830 145.582 C 335.713 145.699,335.595 146.061,335.568 146.387 C 335.541 146.712,335.397 147.081,335.246 147.205 C 335.048 147.370,334.973 148.274,334.973 150.507 C 334.973 153.099,334.923 153.583,334.652 153.583 C 334.372 153.583,334.332 154.865,334.332 163.835 C 334.332 172.663,334.376 174.132,334.652 174.408 C 334.921 174.676,334.973 175.617,334.973 180.156 C 334.973 183.242,335.060 185.671,335.174 185.786 C 335.284 185.898,335.417 187.128,335.469 188.520 C 335.523 189.975,335.665 191.152,335.803 191.290 C 335.935 191.422,336.043 192.033,336.043 192.648 C 336.043 193.357,336.160 193.884,336.364 194.087 C 336.540 194.264,336.684 194.607,336.684 194.851 C 336.684 195.102,336.823 195.294,337.005 195.294 C 337.200 195.294,337.326 195.493,337.326 195.799 C 337.326 196.088,337.555 196.476,337.861 196.705 C 338.155 196.926,338.396 197.228,338.396 197.377 C 338.396 197.526,338.540 197.647,338.717 197.647 C 338.893 197.647,339.037 197.791,339.037 197.968 C 339.037 198.144,339.172 198.289,339.335 198.289 C 339.499 198.289,339.691 198.439,339.762 198.623 C 339.832 198.807,339.983 198.900,340.098 198.829 C 340.212 198.759,340.479 198.873,340.692 199.083 C 340.905 199.293,341.317 199.498,341.609 199.537 C 341.900 199.577,342.230 199.697,342.342 199.805 C 342.454 199.912,343.248 200.000,344.107 200.000 C 344.966 200.000,345.668 200.086,345.668 200.191 C 345.668 200.566,346.379 200.646,346.868 200.326 C 347.208 200.102,347.904 200.000,349.083 200.000 C 350.087 200.000,350.802 199.911,350.802 199.786 C 350.802 199.668,351.144 199.572,351.562 199.572 C 352.839 199.572,355.507 197.743,355.508 196.868 C 355.508 196.733,355.652 196.568,355.829 196.500 C 356.081 196.403,356.150 195.968,356.150 194.468 C 356.150 192.969,356.081 192.533,355.829 192.436 C 355.652 192.368,355.508 192.069,355.508 191.771 C 355.508 191.433,355.388 191.230,355.187 191.230 C 355.011 191.230,354.866 191.135,354.866 191.018 C 354.866 190.712,354.175 189.952,353.997 190.062 C 353.913 190.114,353.726 190.012,353.581 189.837 C 353.267 189.459,349.321 189.374,348.957 189.738 C 348.634 190.062,346.253 190.095,346.147 189.778 C 346.099 189.635,345.924 189.519,345.758 189.519 C 345.512 189.519,345.455 189.009,345.455 186.845 C 345.455 184.611,345.402 184.171,345.134 184.171 C 344.859 184.171,344.813 183.565,344.813 180.000 L 344.813 175.829 347.968 175.823 L 351.123 175.816 351.818 175.184 C 352.201 174.836,352.513 174.454,352.513 174.335 C 352.513 174.215,352.658 174.118,352.834 174.118 C 353.060 174.118,353.155 173.890,353.155 173.354 C 353.155 172.934,353.299 172.445,353.476 172.269 C 353.665 172.080,353.797 171.558,353.797 171.001 C 353.797 170.301,353.713 170.053,353.476 170.053 C 353.244 170.053,353.155 169.816,353.155 169.198 C 353.155 168.580,353.066 168.342,352.834 168.342 C 352.658 168.342,352.513 168.203,352.513 168.032 C 352.513 167.690,351.498 166.873,350.439 166.363 C 350.011 166.156,348.754 165.976,347.070 165.879 L 344.385 165.724 344.385 161.044 C 344.385 158.066,344.463 156.364,344.599 156.364 C 344.730 156.364,344.813 155.365,344.813 153.797 L 344.813 151.230 346.096 151.230 C 346.809 151.230,347.380 151.325,347.380 151.444 C 347.380 151.565,347.988 151.658,348.777 151.658 C 349.821 151.658,350.205 151.739,350.297 151.979 C 350.380 152.195,350.719 152.299,351.334 152.299 C 351.885 152.299,352.353 152.427,352.513 152.620 C 352.706 152.853,353.217 152.941,354.364 152.941 C 355.576 152.941,355.978 152.866,356.072 152.620 C 356.140 152.444,356.426 152.299,356.707 152.299 C 357.020 152.299,357.219 152.174,357.219 151.979 C 357.219 151.802,357.317 151.658,357.437 151.658 C 357.557 151.658,357.990 151.313,358.400 150.891 L 359.144 150.124 359.144 147.782 C 359.144 145.899,359.082 145.417,358.824 145.318 C 358.647 145.250,358.501 145.037,358.499 144.843 C 358.494 144.396,357.590 143.529,357.129 143.529 C 356.936 143.529,356.723 143.385,356.655 143.209 C 356.578 143.009,356.252 142.888,355.791 142.888 C 355.383 142.888,354.905 142.743,354.729 142.567 C 354.531 142.369,354.007 142.246,353.366 142.246 C 352.793 142.246,352.265 142.150,352.193 142.032 C 352.114 141.904,350.729 141.818,348.757 141.818 C 345.964 141.818,345.455 141.769,345.455 141.497 C 345.455 141.255,345.193 141.176,344.385 141.176 C 343.577 141.176,343.316 141.255,343.316 141.497 M303.028 142.557 C 302.958 142.739,302.778 142.891,302.627 142.895 C 302.265 142.904,301.390 143.642,301.390 143.938 C 301.390 144.066,301.295 144.171,301.179 144.171 C 300.767 144.171,300.107 144.914,300.107 145.377 C 300.107 145.635,299.987 145.887,299.840 145.936 C 299.333 146.104,299.462 196.669,299.972 197.732 C 300.393 198.612,301.314 199.554,301.765 199.565 C 301.912 199.569,302.032 199.668,302.032 199.786 C 302.032 199.904,302.446 200.000,302.952 200.000 C 303.458 200.000,303.976 200.105,304.104 200.233 C 304.272 200.400,304.377 200.400,304.480 200.233 C 304.560 200.105,305.052 200.000,305.574 200.000 C 306.097 200.000,306.524 199.911,306.524 199.803 C 306.524 199.695,306.794 199.547,307.123 199.475 C 307.704 199.347,308.877 197.897,308.877 197.306 C 308.877 197.166,309.021 196.996,309.198 196.928 C 309.476 196.821,309.519 195.619,309.519 187.906 C 309.519 179.996,309.554 179.043,309.840 179.328 C 310.016 179.504,310.160 179.981,310.160 180.386 C 310.160 180.792,310.305 181.244,310.481 181.390 C 310.677 181.553,310.802 182.022,310.802 182.593 C 310.802 183.283,310.887 183.529,311.123 183.529 C 311.358 183.529,311.444 183.774,311.444 184.449 C 311.444 184.955,311.535 185.461,311.647 185.573 C 311.759 185.685,311.876 186.148,311.907 186.602 C 311.937 187.056,312.086 187.475,312.238 187.534 C 312.398 187.595,312.513 187.991,312.513 188.479 C 312.513 189.028,312.624 189.361,312.834 189.441 C 313.043 189.522,313.155 189.854,313.155 190.397 C 313.155 190.995,313.246 191.230,313.476 191.230 C 313.718 191.230,313.797 191.490,313.797 192.287 C 313.797 192.868,313.893 193.403,314.011 193.476 C 314.128 193.549,314.225 193.798,314.225 194.030 C 314.225 194.262,314.369 194.507,314.545 194.575 C 314.722 194.643,314.866 194.932,314.866 195.217 C 314.866 195.502,315.002 195.787,315.168 195.851 C 315.334 195.915,315.528 196.200,315.600 196.486 C 315.671 196.772,315.824 197.005,315.940 197.005 C 316.055 197.005,316.150 197.098,316.150 197.212 C 316.150 197.581,317.650 198.930,318.059 198.930 C 318.278 198.930,318.512 199.075,318.580 199.251 C 318.677 199.503,319.107 199.572,320.582 199.569 C 322.618 199.566,323.486 199.421,323.297 199.115 C 323.231 199.008,323.256 198.934,323.353 198.951 C 323.876 199.041,324.278 198.893,324.278 198.610 C 324.278 198.433,324.422 198.289,324.599 198.289 C 324.775 198.289,324.920 198.144,324.920 197.968 C 324.920 197.791,324.998 197.647,325.093 197.647 C 325.312 197.647,325.989 196.127,325.989 195.635 C 325.989 195.431,326.134 195.119,326.310 194.943 C 326.591 194.662,326.631 192.032,326.631 173.882 C 326.631 155.643,326.592 153.127,326.310 153.019 C 326.044 152.916,325.989 152.325,325.989 149.539 C 325.989 147.441,325.904 146.096,325.761 145.953 C 325.560 145.753,325.418 145.320,325.364 144.747 C 325.355 144.652,325.251 144.633,325.134 144.706 C 325.016 144.779,324.920 144.688,324.920 144.505 C 324.920 144.321,324.775 144.171,324.599 144.171 C 324.422 144.171,324.278 144.027,324.278 143.850 C 324.278 143.636,324.064 143.529,323.636 143.529 C 323.237 143.529,323.015 143.428,323.048 143.262 C 323.086 143.072,322.641 142.976,321.500 142.931 C 319.737 142.860,318.844 143.002,319.041 143.322 C 319.114 143.439,318.884 143.529,318.515 143.529 C 318.076 143.529,317.861 143.635,317.861 143.850 C 317.861 144.027,317.766 144.171,317.650 144.171 C 317.324 144.171,316.578 144.875,316.578 145.181 C 316.578 145.332,316.481 145.455,316.364 145.455 C 316.246 145.455,316.150 145.840,316.150 146.310 C 316.150 146.883,316.055 147.166,315.863 147.166 C 315.656 147.166,315.563 147.558,315.530 148.556 C 315.501 149.461,315.569 149.947,315.723 149.947 C 315.854 149.947,315.902 150.043,315.829 150.160 C 315.756 150.278,315.799 150.374,315.923 150.374 C 316.077 150.374,316.150 152.255,316.150 156.244 C 316.150 159.926,316.229 162.163,316.364 162.246 C 316.493 162.326,316.578 163.888,316.578 166.216 C 316.578 168.632,316.498 170.053,316.364 170.053 C 316.246 170.053,316.150 169.714,316.150 169.298 C 316.150 168.824,316.030 168.497,315.829 168.420 C 315.604 168.333,315.508 167.982,315.508 167.243 C 315.508 166.504,315.412 166.153,315.187 166.067 C 314.957 165.978,314.866 165.618,314.866 164.790 C 314.866 163.907,314.791 163.636,314.545 163.636 C 314.308 163.636,314.225 163.386,314.225 162.671 C 314.225 162.140,314.133 161.538,314.022 161.334 C 313.910 161.130,313.760 160.505,313.688 159.947 C 313.616 159.388,313.466 158.930,313.356 158.930 C 313.245 158.930,313.155 158.446,313.155 157.854 C 313.155 157.095,313.061 156.742,312.834 156.655 C 312.609 156.569,312.513 156.217,312.513 155.478 C 312.513 154.739,312.418 154.388,312.193 154.302 C 311.976 154.219,311.872 153.878,311.872 153.252 C 311.872 152.742,311.788 152.273,311.686 152.210 C 311.584 152.147,311.449 151.639,311.386 151.081 C 311.323 150.524,311.166 150.032,311.037 149.989 C 310.908 149.946,310.802 149.534,310.802 149.073 C 310.802 148.471,310.712 148.235,310.481 148.235 C 310.250 148.235,310.160 147.998,310.160 147.380 C 310.160 146.762,310.071 146.524,309.840 146.524 C 309.626 146.524,309.519 146.310,309.519 145.882 C 309.519 145.455,309.412 145.241,309.198 145.241 C 308.998 145.241,308.877 145.039,308.877 144.706 C 308.877 144.412,308.781 144.171,308.663 144.171 C 308.545 144.171,308.449 144.027,308.449 143.850 C 308.449 143.674,308.305 143.529,308.128 143.529 C 307.952 143.529,307.807 143.385,307.807 143.209 C 307.807 143.032,307.673 142.888,307.510 142.888 C 307.346 142.888,307.161 142.756,307.099 142.595 C 306.925 142.141,303.201 142.106,303.028 142.557 M182.674 143.209 C 182.527 143.385,182.275 143.529,182.113 143.529 C 181.951 143.529,181.818 143.674,181.818 143.850 C 181.818 144.027,181.674 144.171,181.497 144.171 C 181.298 144.171,181.176 144.373,181.176 144.706 C 181.176 145.039,181.055 145.241,180.856 145.241 C 180.619 145.241,180.535 145.488,180.535 146.185 C 180.535 146.705,180.434 147.164,180.311 147.205 C 180.016 147.303,179.798 149.478,179.983 150.466 C 180.063 150.893,180.220 151.185,180.332 151.116 C 180.655 150.916,180.603 185.515,180.279 185.838 C 180.139 185.979,179.990 186.552,179.948 187.111 C 179.906 187.671,179.781 188.160,179.669 188.200 C 179.557 188.239,179.465 188.455,179.465 188.681 C 179.465 188.906,179.363 189.091,179.239 189.091 C 179.114 189.091,179.072 189.187,179.144 189.305 C 179.217 189.422,179.086 189.519,178.854 189.519 C 178.622 189.519,178.383 189.639,178.323 189.786 C 178.237 190.000,178.212 190.000,178.199 189.786 C 178.189 189.639,178.037 189.519,177.861 189.519 C 177.646 189.519,177.540 189.303,177.540 188.864 C 177.540 188.483,177.451 188.265,177.326 188.342 C 177.197 188.422,177.106 188.109,177.096 187.553 C 177.075 186.302,176.928 185.576,176.678 185.490 C 176.364 185.382,176.417 181.957,176.738 181.636 C 176.928 181.446,177.005 180.437,177.005 178.136 C 177.005 175.739,176.936 174.879,176.738 174.813 C 176.591 174.764,176.471 174.512,176.471 174.254 C 176.471 173.791,175.810 173.048,175.399 173.048 C 175.282 173.048,175.187 172.904,175.187 172.727 C 175.187 172.551,175.005 172.406,174.782 172.406 C 174.560 172.406,174.320 172.257,174.250 172.075 C 174.073 171.614,169.412 171.647,169.412 172.110 C 169.412 172.273,169.319 172.406,169.205 172.406 C 168.923 172.406,167.816 173.509,167.641 173.963 C 167.564 174.166,167.401 174.332,167.279 174.332 C 167.138 174.332,167.059 175.403,167.059 177.300 C 167.059 179.678,166.995 180.321,166.738 180.535 C 166.280 180.915,166.280 188.717,166.738 189.519 C 166.906 189.813,167.047 190.559,167.051 191.176 C 167.057 192.029,167.136 192.299,167.380 192.299 C 167.597 192.299,167.701 192.517,167.701 192.976 C 167.701 193.706,168.315 195.294,168.597 195.294 C 168.692 195.294,168.770 195.439,168.770 195.615 C 168.770 195.791,168.914 195.936,169.091 195.936 C 169.291 195.936,169.412 196.138,169.412 196.471 C 169.412 196.803,169.533 197.005,169.733 197.005 C 169.909 197.005,170.053 197.150,170.053 197.326 C 170.053 197.503,170.198 197.647,170.374 197.647 C 170.551 197.647,170.671 197.749,170.642 197.874 C 170.612 197.999,170.972 198.312,171.441 198.569 C 171.909 198.827,172.506 199.254,172.767 199.519 C 173.077 199.833,173.498 200.000,173.978 200.000 C 174.434 200.000,174.760 200.122,174.837 200.321 C 174.937 200.583,175.456 200.642,177.647 200.642 C 179.838 200.642,180.357 200.583,180.457 200.321 C 180.538 200.112,180.870 200.000,181.413 200.000 C 181.871 200.000,182.246 199.904,182.246 199.786 C 182.246 199.668,182.490 199.572,182.787 199.572 C 183.085 199.572,183.384 199.428,183.452 199.251 C 183.520 199.075,183.806 198.930,184.087 198.930 C 184.399 198.930,184.599 198.805,184.599 198.610 C 184.599 198.433,184.743 198.289,184.920 198.289 C 185.096 198.289,185.241 198.144,185.241 197.968 C 185.241 197.791,185.385 197.647,185.561 197.647 C 185.738 197.647,185.882 197.503,185.882 197.326 C 185.882 197.150,185.985 197.005,186.112 197.005 C 186.408 197.005,186.952 196.461,186.952 196.165 C 186.952 196.039,187.053 195.936,187.177 195.936 C 187.301 195.936,187.503 195.647,187.626 195.294 C 187.749 194.941,187.936 194.652,188.042 194.652 C 188.148 194.652,188.235 194.508,188.235 194.332 C 188.235 194.155,188.342 194.035,188.473 194.064 C 188.604 194.094,188.752 193.877,188.800 193.583 C 188.849 193.289,188.983 193.016,189.097 192.977 C 189.211 192.938,189.305 192.525,189.305 192.061 C 189.305 191.508,189.415 191.174,189.626 191.093 C 189.873 190.998,189.947 190.585,189.947 189.282 C 189.947 187.924,190.009 187.594,190.267 187.594 C 190.748 187.594,190.755 147.896,190.274 147.260 C 190.101 147.032,189.957 146.484,189.953 146.043 C 189.949 145.475,189.853 145.241,189.626 145.241 C 189.447 145.241,189.305 145.051,189.305 144.813 C 189.305 144.578,189.112 144.193,188.877 143.957 C 188.642 143.722,188.257 143.529,188.021 143.529 C 187.784 143.529,187.594 143.387,187.594 143.209 C 187.594 142.943,187.192 142.888,185.267 142.888 C 183.460 142.888,182.881 142.959,182.674 143.209 M208.420 143.209 C 208.349 143.391,208.030 143.529,207.678 143.529 C 207.270 143.529,207.059 143.639,207.059 143.850 C 207.059 144.035,206.865 144.171,206.602 144.171 C 206.351 144.171,205.922 144.412,205.650 144.706 C 205.377 145.000,205.053 145.241,204.930 145.241 C 204.807 145.241,204.706 145.385,204.706 145.561 C 204.706 145.738,204.561 145.882,204.385 145.882 C 204.209 145.882,204.064 145.985,204.064 146.112 C 204.064 146.238,203.927 146.478,203.759 146.646 C 203.591 146.814,203.350 146.952,203.224 146.952 C 203.098 146.952,202.995 147.084,202.995 147.247 C 202.995 147.409,202.850 147.661,202.674 147.807 C 202.497 147.954,202.353 148.255,202.353 148.475 C 202.353 148.696,202.281 148.878,202.193 148.878 C 201.920 148.881,201.283 150.166,201.283 150.713 C 201.283 151.030,201.159 151.230,200.963 151.230 C 200.767 151.230,200.642 151.429,200.642 151.742 C 200.642 152.023,200.497 152.309,200.321 152.377 C 200.144 152.445,200.000 152.744,200.000 153.041 C 200.000 153.339,199.908 153.583,199.796 153.583 C 199.683 153.583,199.534 153.944,199.463 154.385 C 199.393 154.826,199.244 155.354,199.133 155.559 C 199.021 155.763,198.930 156.346,198.930 156.855 C 198.930 157.363,198.789 157.966,198.616 158.194 C 198.398 158.483,198.300 159.172,198.296 160.455 C 198.291 161.828,198.207 162.369,197.968 162.567 C 197.694 162.794,197.647 163.921,197.647 170.278 C 197.647 176.611,197.695 177.771,197.968 178.044 C 198.212 178.289,198.289 178.899,198.289 180.602 C 198.289 182.170,198.384 183.022,198.608 183.451 C 198.784 183.789,198.928 184.623,198.929 185.307 C 198.930 186.080,199.011 186.499,199.144 186.417 C 199.271 186.339,199.358 186.588,199.358 187.031 C 199.358 187.441,199.503 187.921,199.679 188.098 C 199.856 188.274,200.000 188.762,200.000 189.183 C 200.000 189.706,200.097 189.947,200.309 189.947 C 200.519 189.947,200.638 190.237,200.683 190.856 C 200.725 191.443,200.843 191.746,201.016 191.711 C 201.182 191.678,201.283 191.900,201.283 192.299 C 201.283 192.652,201.380 192.941,201.497 192.941 C 201.615 192.941,201.711 193.128,201.711 193.356 C 201.711 193.584,202.000 194.087,202.353 194.473 C 202.706 194.859,202.995 195.302,202.995 195.455 C 202.995 195.609,203.139 195.791,203.316 195.858 C 203.492 195.926,203.636 196.121,203.636 196.292 C 203.636 196.463,203.733 196.543,203.852 196.470 C 203.970 196.396,204.125 196.487,204.196 196.671 C 204.266 196.855,204.464 197.005,204.634 197.005 C 204.805 197.005,204.885 197.102,204.813 197.220 C 204.740 197.338,204.903 197.523,205.174 197.632 C 205.446 197.741,205.948 198.078,206.290 198.381 C 206.632 198.683,207.079 198.930,207.283 198.930 C 207.488 198.930,207.710 199.075,207.778 199.251 C 207.846 199.428,208.137 199.572,208.425 199.572 C 208.713 199.572,208.982 199.674,209.024 199.798 C 209.071 199.940,210.079 200.024,211.746 200.024 C 213.319 200.024,214.485 199.932,214.619 199.798 C 214.743 199.674,215.013 199.572,215.219 199.572 C 215.425 199.572,215.671 199.437,215.765 199.272 C 215.859 199.106,216.128 198.938,216.364 198.897 C 216.599 198.857,217.029 198.559,217.320 198.235 C 217.611 197.912,218.023 197.647,218.236 197.647 C 218.449 197.647,218.678 197.503,218.746 197.326 C 218.814 197.150,218.980 197.005,219.115 197.005 C 219.365 197.005,220.535 195.235,220.535 194.858 C 220.535 194.745,220.679 194.652,220.856 194.652 C 221.055 194.652,221.176 194.450,221.176 194.118 C 221.176 193.785,221.298 193.583,221.497 193.583 C 221.711 193.583,221.818 193.369,221.818 192.941 C 221.818 192.588,221.911 192.299,222.025 192.299 C 222.138 192.299,222.295 191.816,222.374 191.225 C 222.452 190.634,222.600 190.099,222.702 190.036 C 222.804 189.973,222.888 189.439,222.888 188.849 C 222.888 188.181,223.009 187.656,223.209 187.456 C 223.451 187.214,223.529 186.614,223.529 185.011 C 223.529 183.337,223.593 182.888,223.828 182.888 C 224.067 182.888,224.133 182.325,224.159 180.078 C 224.181 178.140,224.284 177.087,224.491 176.687 C 224.930 175.837,224.924 168.248,224.483 167.398 C 224.257 166.961,224.171 166.038,224.171 164.040 C 224.171 161.732,224.119 161.283,223.850 161.283 C 223.590 161.283,223.529 160.939,223.529 159.465 C 223.529 157.992,223.469 157.647,223.209 157.647 C 222.962 157.647,222.888 157.374,222.888 156.471 C 222.888 155.824,222.791 155.294,222.674 155.294 C 222.556 155.294,222.460 154.919,222.460 154.461 C 222.460 153.919,222.348 153.586,222.139 153.506 C 221.940 153.429,221.818 153.104,221.818 152.650 C 221.818 152.196,221.696 151.871,221.497 151.794 C 221.321 151.727,221.176 151.428,221.176 151.130 C 221.176 150.791,221.056 150.588,220.856 150.588 C 220.656 150.588,220.535 150.386,220.535 150.053 C 220.535 149.759,220.463 149.518,220.374 149.517 C 220.286 149.516,220.024 149.082,219.792 148.554 C 219.559 148.026,219.257 147.594,219.120 147.594 C 218.982 147.594,218.809 147.349,218.733 147.050 C 218.658 146.751,218.504 146.564,218.389 146.635 C 218.275 146.705,218.182 146.565,218.182 146.323 C 218.182 146.081,218.093 145.882,217.984 145.882 C 217.876 145.882,217.498 145.594,217.145 145.241 C 216.792 144.888,216.352 144.599,216.166 144.599 C 215.981 144.599,215.829 144.503,215.829 144.385 C 215.829 144.267,215.684 144.171,215.508 144.171 C 215.332 144.171,215.187 144.027,215.187 143.850 C 215.187 143.626,214.961 143.529,214.432 143.529 C 213.958 143.529,213.631 143.410,213.553 143.209 C 213.454 142.949,212.961 142.888,210.986 142.888 C 209.012 142.888,208.519 142.949,208.420 143.209 M370.405 143.209 C 370.204 143.409,369.678 143.529,368.999 143.529 C 368.178 143.529,367.914 143.607,367.914 143.850 C 367.914 144.027,367.811 144.171,367.685 144.171 C 367.389 144.171,366.845 144.715,366.845 145.011 C 366.845 145.138,366.701 145.241,366.524 145.241 C 366.322 145.241,366.203 145.444,366.203 145.791 C 366.203 146.093,366.059 146.485,365.882 146.662 C 365.611 146.933,365.561 148.000,365.561 153.572 C 365.561 159.168,365.610 160.202,365.882 160.428 C 366.137 160.639,366.203 161.263,366.203 163.463 C 366.203 164.985,366.291 166.395,366.398 166.595 C 366.505 166.795,366.615 167.439,366.643 168.025 C 366.671 168.611,366.824 169.304,366.983 169.565 C 367.143 169.825,367.273 170.382,367.273 170.801 C 367.273 171.282,367.391 171.610,367.594 171.687 C 367.770 171.755,367.914 172.044,367.914 172.329 C 367.914 172.614,368.059 172.903,368.235 172.971 C 368.444 173.051,368.556 173.384,368.556 173.927 C 368.556 174.385,368.652 174.759,368.770 174.759 C 368.888 174.759,368.984 174.897,368.984 175.065 C 368.984 175.233,369.116 175.502,369.277 175.663 C 369.438 175.824,369.637 176.168,369.719 176.427 C 369.801 176.686,369.958 176.898,370.068 176.898 C 370.178 176.898,370.267 177.038,370.267 177.209 C 370.267 177.379,370.397 177.596,370.555 177.690 C 370.713 177.784,371.020 178.150,371.239 178.503 C 371.779 179.376,372.225 179.795,373.127 180.279 C 373.548 180.504,373.833 180.748,373.761 180.821 C 373.688 180.893,373.787 181.013,373.980 181.087 C 374.256 181.193,374.332 181.519,374.332 182.602 C 374.332 183.361,374.251 183.933,374.153 183.872 C 373.920 183.728,373.938 183.371,373.810 190.481 C 373.701 196.551,373.758 197.762,374.142 197.525 C 374.246 197.461,374.332 197.524,374.332 197.666 C 374.332 198.199,376.508 200.000,377.152 200.000 C 377.265 200.000,377.501 200.144,377.678 200.321 C 377.854 200.497,378.174 200.642,378.388 200.642 C 378.602 200.642,378.833 200.497,378.901 200.321 C 378.987 200.096,379.337 200.000,380.069 200.000 C 380.887 200.000,381.239 199.884,381.691 199.465 C 382.008 199.171,382.359 198.930,382.471 198.930 C 382.582 198.930,382.674 198.827,382.674 198.701 C 382.674 198.575,382.818 198.328,382.995 198.151 C 383.171 197.975,383.316 197.645,383.316 197.418 C 383.316 197.191,383.412 197.005,383.529 197.005 C 383.666 197.005,383.743 195.042,383.743 191.544 C 383.743 187.118,383.799 186.062,384.036 185.970 C 384.250 185.888,384.340 185.333,384.369 183.909 L 384.408 181.960 386.077 180.338 C 386.995 179.446,387.815 178.500,387.898 178.235 C 387.982 177.971,388.140 177.754,388.250 177.754 C 388.359 177.754,388.449 177.607,388.449 177.426 C 388.449 177.246,388.594 177.043,388.770 176.976 C 388.965 176.901,389.091 176.577,389.091 176.150 C 389.091 175.722,389.217 175.399,389.412 175.324 C 389.588 175.256,389.733 174.965,389.733 174.677 C 389.733 174.389,389.838 174.118,389.967 174.075 C 390.097 174.032,390.254 173.350,390.318 172.560 C 390.381 171.770,390.516 171.123,390.618 171.123 C 390.864 171.123,390.857 156.634,390.611 156.542 C 390.506 156.503,390.383 155.082,390.338 153.385 C 390.280 151.207,390.178 150.273,389.994 150.212 C 389.813 150.151,389.733 149.505,389.733 148.104 C 389.733 146.577,389.660 146.055,389.436 145.969 C 389.272 145.906,389.081 145.566,389.010 145.213 C 388.939 144.857,388.786 144.630,388.666 144.704 C 388.547 144.778,388.449 144.688,388.449 144.505 C 388.449 144.321,388.305 144.171,388.128 144.171 C 387.952 144.171,387.832 144.053,387.861 143.909 C 387.890 143.765,387.692 143.613,387.420 143.571 C 387.148 143.530,386.873 143.359,386.809 143.192 C 386.637 142.744,382.834 142.758,382.383 143.209 C 382.207 143.385,381.911 143.529,381.727 143.529 C 381.542 143.529,381.390 143.674,381.390 143.850 C 381.390 144.027,381.294 144.171,381.176 144.171 C 381.059 144.171,380.963 144.316,380.963 144.492 C 380.963 144.668,380.842 144.789,380.695 144.759 C 380.545 144.729,380.398 144.963,380.360 145.294 C 380.321 145.631,380.161 145.882,379.986 145.882 C 379.523 145.882,379.536 150.761,380.000 150.939 C 380.269 151.042,380.321 151.686,380.321 154.902 C 380.321 157.116,380.402 158.692,380.513 158.623 C 380.760 158.471,381.030 163.495,380.931 166.399 C 380.879 167.935,380.773 168.655,380.588 168.717 C 380.428 168.770,380.321 169.185,380.321 169.750 C 380.321 170.448,380.237 170.695,380.000 170.695 C 379.824 170.695,379.679 170.791,379.679 170.909 C 379.679 171.027,379.535 171.123,379.358 171.123 C 379.182 171.123,379.037 171.027,379.037 170.909 C 379.037 170.791,378.893 170.695,378.717 170.695 C 378.540 170.695,378.396 170.551,378.396 170.374 C 378.396 170.198,378.299 170.053,378.182 170.053 C 378.064 170.053,377.968 169.823,377.968 169.542 C 377.968 169.260,377.830 168.977,377.661 168.912 C 377.487 168.845,377.324 168.439,377.286 167.980 C 377.244 167.469,377.120 167.186,376.952 167.219 C 376.764 167.257,376.684 166.922,376.684 166.090 C 376.684 165.235,376.595 164.872,376.364 164.783 C 376.101 164.683,376.043 164.158,376.043 161.915 C 376.043 160.315,375.954 159.114,375.829 159.037 C 375.694 158.954,375.615 156.580,375.615 152.623 C 375.615 147.324,375.565 146.291,375.294 146.020 C 375.118 145.843,374.973 145.521,374.973 145.303 C 374.973 144.912,374.287 144.171,373.924 144.171 C 373.820 144.171,373.680 144.027,373.612 143.850 C 373.540 143.662,373.219 143.529,372.834 143.529 C 372.449 143.529,372.128 143.397,372.056 143.209 C 371.987 143.028,371.668 142.888,371.329 142.888 C 370.997 142.888,370.581 143.032,370.405 143.209 M234.866 143.850 C 234.866 144.053,234.662 144.171,234.312 144.171 C 233.750 144.171,232.962 144.891,232.948 145.416 C 232.944 145.572,232.816 145.824,232.663 145.977 C 232.482 146.158,232.389 146.820,232.396 147.884 C 232.403 148.998,232.322 149.546,232.139 149.616 C 231.806 149.745,231.742 182.886,232.075 183.219 C 232.186 183.331,232.332 184.670,232.398 186.195 C 232.465 187.720,232.614 189.063,232.730 189.179 C 232.846 189.295,232.941 189.615,232.941 189.889 C 232.941 190.163,233.086 190.443,233.262 190.511 C 233.461 190.587,233.583 190.913,233.583 191.366 C 233.583 191.820,233.705 192.146,233.904 192.222 C 234.087 192.292,234.225 192.611,234.225 192.964 C 234.225 193.372,234.334 193.583,234.545 193.583 C 234.745 193.583,234.866 193.785,234.866 194.118 C 234.866 194.412,234.963 194.652,235.080 194.652 C 235.198 194.652,235.294 194.762,235.294 194.896 C 235.294 195.030,235.433 195.247,235.603 195.377 C 235.773 195.508,235.942 195.751,235.978 195.918 C 236.060 196.303,236.724 197.005,237.005 197.005 C 237.123 197.005,237.219 197.150,237.219 197.326 C 237.219 197.503,237.364 197.647,237.540 197.647 C 237.717 197.647,237.861 197.741,237.861 197.857 C 237.861 197.972,238.102 198.127,238.396 198.201 C 238.690 198.275,238.930 198.469,238.930 198.633 C 238.930 198.797,239.123 198.930,239.358 198.930 C 239.594 198.930,239.786 199.008,239.786 199.103 C 239.786 199.406,241.398 200.000,242.218 200.000 C 242.723 200.000,243.052 200.116,243.131 200.321 C 243.228 200.574,243.673 200.642,245.248 200.642 C 246.735 200.642,247.324 200.560,247.563 200.321 C 247.739 200.144,248.222 200.000,248.635 200.000 C 249.048 200.000,249.446 199.904,249.519 199.786 C 249.591 199.668,249.876 199.572,250.150 199.572 C 250.425 199.572,250.705 199.428,250.773 199.251 C 250.840 199.075,251.091 198.930,251.330 198.930 C 251.574 198.930,251.765 198.790,251.765 198.610 C 251.765 198.433,251.909 198.289,252.086 198.289 C 252.262 198.289,252.406 198.144,252.406 197.968 C 252.406 197.791,252.499 197.647,252.613 197.647 C 252.892 197.647,254.118 196.434,254.118 196.157 C 254.118 196.035,254.262 195.936,254.439 195.936 C 254.615 195.936,254.759 195.791,254.759 195.615 C 254.759 195.439,254.846 195.294,254.952 195.294 C 255.058 195.294,255.246 195.005,255.369 194.652 C 255.492 194.299,255.673 194.011,255.772 194.011 C 255.871 194.011,255.967 193.803,255.987 193.549 C 256.006 193.295,256.115 193.029,256.230 192.958 C 256.345 192.887,256.470 192.445,256.508 191.976 C 256.552 191.435,256.675 191.143,256.845 191.176 C 257.038 191.215,257.112 190.821,257.112 189.756 C 257.112 188.632,257.190 188.251,257.438 188.156 C 257.917 187.972,257.901 173.947,257.422 173.763 C 257.160 173.662,257.112 172.527,257.112 166.388 C 257.112 160.135,257.068 159.114,256.791 159.008 C 256.520 158.904,256.471 158.167,256.471 154.202 C 256.471 151.222,256.393 149.519,256.257 149.519 C 256.131 149.519,256.043 148.770,256.043 147.701 C 256.043 146.227,255.982 145.882,255.722 145.882 C 255.531 145.882,255.401 145.686,255.401 145.395 C 255.401 144.918,254.747 144.171,254.329 144.171 C 254.213 144.171,254.118 144.027,254.118 143.850 C 254.118 143.580,253.633 143.529,251.039 143.529 C 248.500 143.529,247.939 143.586,247.837 143.850 C 247.769 144.027,247.601 144.171,247.463 144.171 C 247.098 144.171,246.646 144.845,246.638 145.401 C 246.634 145.683,246.498 145.882,246.310 145.882 C 246.040 145.882,245.989 146.355,245.989 148.851 C 245.989 151.228,246.053 151.872,246.310 152.086 C 246.583 152.312,246.631 153.357,246.631 159.046 C 246.631 163.170,246.711 165.767,246.838 165.811 C 246.962 165.854,247.054 167.673,247.068 170.322 C 247.086 173.856,247.153 174.823,247.396 175.066 C 247.859 175.529,247.844 186.411,247.380 186.875 C 247.203 187.052,247.056 187.406,247.052 187.662 C 247.044 188.201,246.589 188.877,246.233 188.877 C 246.099 188.877,245.989 189.021,245.989 189.198 C 245.989 190.537,243.237 188.809,242.988 187.314 C 242.925 186.935,242.758 186.655,242.613 186.684 C 242.423 186.724,242.353 186.170,242.353 184.612 C 242.353 183.425,242.258 182.427,242.139 182.353 C 242.004 182.269,241.925 179.752,241.925 175.508 C 241.925 171.264,242.004 168.747,242.139 168.663 C 242.408 168.497,242.436 147.380,242.167 147.380 C 242.065 147.380,241.930 146.997,241.867 146.530 C 241.805 146.063,241.624 145.545,241.465 145.380 C 241.306 145.214,241.035 144.875,240.862 144.625 C 240.689 144.375,240.388 144.171,240.193 144.171 C 239.998 144.171,239.719 144.027,239.572 143.850 C 239.367 143.603,238.798 143.529,237.086 143.529 C 235.256 143.529,234.866 143.586,234.866 143.850 M276.791 151.979 C 276.938 152.155,277.238 152.299,277.459 152.299 C 277.680 152.299,277.861 152.401,277.861 152.526 C 277.861 152.651,277.945 152.701,278.047 152.638 C 278.149 152.574,278.578 152.858,278.999 153.267 C 279.420 153.676,279.866 154.011,279.989 154.011 C 280.113 154.011,280.214 154.155,280.214 154.332 C 280.214 154.508,280.310 154.652,280.428 154.652 C 280.545 154.652,280.642 154.896,280.642 155.194 C 280.642 155.492,280.786 155.791,280.963 155.858 C 281.178 155.941,281.283 156.280,281.283 156.895 C 281.283 157.446,281.411 157.914,281.604 158.075 C 281.829 158.261,281.925 158.755,281.925 159.721 C 281.925 160.662,281.823 161.202,281.604 161.421 C 281.418 161.607,281.283 162.129,281.283 162.663 C 281.283 163.221,281.157 163.689,280.963 163.850 C 280.786 163.997,280.642 164.394,280.642 164.732 C 280.642 165.071,280.552 165.348,280.442 165.348 C 280.332 165.348,280.212 165.612,280.175 165.936 C 280.137 166.267,279.990 166.501,279.840 166.471 C 279.673 166.437,279.572 166.660,279.572 167.059 C 279.572 167.487,279.465 167.701,279.251 167.701 C 279.075 167.701,278.930 167.845,278.930 168.021 C 278.930 168.198,278.802 168.342,278.646 168.342 C 278.489 168.342,278.232 168.583,278.075 168.877 C 277.917 169.171,277.671 169.412,277.527 169.412 C 277.383 169.412,277.212 169.549,277.148 169.716 C 277.084 169.883,276.809 170.054,276.537 170.095 C 276.265 170.137,276.067 170.289,276.096 170.433 C 276.126 170.577,276.005 170.695,275.829 170.695 C 275.548 170.695,275.508 169.495,275.508 161.176 L 275.508 151.658 276.017 151.658 C 276.296 151.658,276.645 151.802,276.791 151.979 M211.853 155.187 C 211.926 155.481,212.081 155.722,212.197 155.722 C 212.312 155.722,212.406 156.011,212.406 156.364 C 212.406 156.791,212.513 157.005,212.727 157.005 C 212.990 157.005,213.048 157.372,213.048 159.020 C 213.048 160.127,213.138 161.066,213.247 161.105 C 213.357 161.144,213.475 162.935,213.510 165.094 C 213.556 167.940,213.648 169.074,213.845 169.238 C 214.145 169.487,214.244 173.492,213.957 173.779 C 213.869 173.867,213.785 174.028,213.770 174.135 C 213.755 174.243,213.719 174.404,213.689 174.492 C 213.602 174.751,213.564 175.747,213.519 178.997 C 213.491 180.972,213.400 182.010,213.262 181.925 C 213.126 181.841,213.048 182.462,213.048 183.636 C 213.048 184.667,212.964 185.428,212.857 185.361 C 212.611 185.209,212.406 185.745,212.406 186.542 C 212.406 186.885,212.297 187.166,212.163 187.166 C 212.029 187.166,211.799 187.329,211.654 187.529 C 211.374 187.910,210.481 186.581,210.481 185.784 C 210.481 185.603,210.385 185.455,210.267 185.455 C 210.150 185.455,210.053 185.178,210.053 184.839 C 210.053 184.500,209.909 184.104,209.733 183.957 C 209.527 183.786,209.412 183.313,209.412 182.635 C 209.412 182.054,209.326 181.632,209.220 181.697 C 208.895 181.898,208.770 181.218,208.770 179.246 C 208.770 178.180,208.674 177.292,208.550 177.216 C 208.408 177.128,208.337 175.016,208.349 171.209 C 208.360 167.601,208.445 165.386,208.569 165.462 C 208.692 165.538,208.770 164.160,208.770 161.931 C 208.770 158.879,208.823 158.255,209.091 158.152 C 209.298 158.073,209.412 157.742,209.412 157.219 C 209.412 156.697,209.526 156.366,209.733 156.286 C 209.909 156.219,210.053 155.968,210.053 155.729 C 210.053 155.490,210.150 155.294,210.267 155.294 C 210.385 155.294,210.481 155.150,210.481 154.973 C 210.481 154.378,211.697 154.567,211.853 155.187 " stroke="none" fill="#ab6cfc" fill-rule="evenodd"></path><path id="path1" d="M183.448 9.783 C 182.999 9.893,181.818 11.024,181.818 11.344 C 181.818 11.458,181.674 11.551,181.497 11.551 C 181.321 11.551,181.176 11.654,181.176 11.780 C 181.176 12.053,180.641 12.620,180.384 12.620 C 180.148 12.620,179.465 13.418,179.465 13.692 C 179.465 13.809,179.366 13.904,179.246 13.904 C 178.960 13.904,177.112 15.751,177.112 16.037 C 177.112 16.158,176.968 16.257,176.791 16.257 C 176.615 16.257,176.471 16.446,176.471 16.677 C 176.471 16.908,176.278 17.200,176.043 17.326 C 175.807 17.452,175.615 17.485,175.615 17.400 C 175.615 17.315,175.422 17.452,175.187 17.705 C 174.952 17.957,174.759 18.264,174.759 18.387 C 174.759 18.509,174.615 18.610,174.439 18.610 C 174.262 18.610,174.118 18.736,174.118 18.889 C 174.118 19.043,173.735 19.452,173.267 19.799 C 172.799 20.145,172.414 20.548,172.411 20.695 C 172.409 20.842,172.262 20.963,172.086 20.963 C 171.909 20.963,171.765 21.054,171.765 21.167 C 171.765 21.422,169.859 23.316,169.602 23.316 C 169.497 23.316,169.412 23.409,169.412 23.524 C 169.412 23.795,167.538 25.668,167.267 25.668 C 167.153 25.668,167.059 25.802,167.059 25.964 C 167.059 26.127,166.866 26.311,166.631 26.372 C 166.375 26.439,166.203 26.664,166.203 26.932 C 166.203 27.237,166.067 27.380,165.775 27.380 C 165.538 27.380,165.348 27.522,165.348 27.701 C 165.348 27.877,165.203 28.021,165.027 28.021 C 164.850 28.021,164.706 28.108,164.706 28.213 C 164.706 28.526,163.564 29.733,163.268 29.733 C 163.118 29.733,162.995 29.877,162.995 30.053 C 162.995 30.230,162.850 30.374,162.674 30.374 C 162.497 30.374,162.353 30.476,162.353 30.600 C 162.353 30.852,161.069 32.086,160.808 32.086 C 160.717 32.086,160.642 32.230,160.642 32.406 C 160.642 32.583,160.497 32.727,160.321 32.727 C 160.144 32.727,160.000 32.872,160.000 33.048 C 160.000 33.225,159.856 33.369,159.679 33.369 C 159.503 33.369,159.358 33.462,159.358 33.576 C 159.358 33.855,158.145 35.080,157.868 35.080 C 157.747 35.080,157.647 35.225,157.647 35.401 C 157.647 35.578,157.503 35.722,157.326 35.722 C 157.150 35.722,157.005 35.855,157.005 36.018 C 157.005 36.181,156.813 36.364,156.579 36.425 C 156.344 36.487,156.087 36.707,156.007 36.915 C 155.825 37.389,155.150 38.075,154.866 38.075 C 154.749 38.075,154.652 38.219,154.652 38.396 C 154.652 38.572,154.508 38.717,154.332 38.717 C 154.132 38.717,154.011 38.919,154.011 39.251 C 154.011 39.584,153.889 39.786,153.690 39.786 C 153.512 39.786,153.369 39.596,153.369 39.358 C 153.369 38.807,152.636 38.075,152.086 38.075 C 151.848 38.075,151.658 37.932,151.658 37.754 C 151.658 37.578,151.513 37.433,151.337 37.433 C 151.160 37.433,151.013 37.265,151.009 37.059 C 150.999 36.553,150.280 35.722,149.852 35.722 C 149.661 35.722,149.450 35.578,149.382 35.401 C 149.314 35.225,149.125 35.080,148.961 35.080 C 148.797 35.080,148.663 34.936,148.663 34.759 C 148.663 34.583,148.567 34.439,148.449 34.439 C 148.332 34.439,148.235 34.298,148.235 34.126 C 148.235 33.704,147.154 32.727,146.687 32.727 C 146.480 32.727,146.310 32.583,146.310 32.406 C 146.310 32.230,146.214 32.086,146.096 32.086 C 145.979 32.086,145.882 31.955,145.882 31.796 C 145.882 31.518,144.805 30.211,144.667 30.321 C 144.436 30.503,143.957 30.322,143.957 30.053 C 143.957 29.877,143.867 29.733,143.758 29.733 C 143.648 29.733,143.494 29.530,143.415 29.282 C 143.187 28.563,142.619 28.021,142.091 28.021 C 141.801 28.021,141.604 27.892,141.604 27.701 C 141.604 27.229,137.799 27.229,137.617 27.701 C 137.550 27.877,137.264 28.021,136.982 28.021 C 136.670 28.021,136.471 28.146,136.471 28.342 C 136.471 28.519,136.326 28.663,136.150 28.663 C 135.973 28.663,135.829 28.807,135.829 28.984 C 135.829 29.160,135.754 29.305,135.663 29.305 C 135.401 29.305,134.118 30.539,134.118 30.790 C 134.118 30.914,133.973 31.016,133.797 31.016 C 133.620 31.016,133.476 31.160,133.476 31.337 C 133.476 31.513,133.401 31.658,133.310 31.658 C 133.048 31.658,131.765 32.892,131.765 33.143 C 131.765 33.267,131.620 33.369,131.444 33.369 C 131.176 33.369,131.123 33.797,131.123 35.936 C 131.123 38.075,131.176 38.503,131.444 38.503 C 131.620 38.503,131.765 38.647,131.765 38.824 C 131.765 39.000,131.851 39.144,131.955 39.144 C 132.060 39.144,132.206 39.384,132.280 39.676 C 132.362 40.004,132.617 40.258,132.944 40.341 C 133.237 40.414,133.476 40.560,133.476 40.665 C 133.476 40.770,133.620 40.856,133.797 40.856 C 133.973 40.856,134.118 40.956,134.118 41.079 C 134.118 41.552,135.774 43.209,136.248 43.209 C 136.370 43.209,136.471 43.317,136.471 43.451 C 136.471 43.766,138.266 45.561,138.581 45.561 C 138.715 45.561,138.824 45.671,138.824 45.804 C 138.824 45.938,139.045 46.253,139.317 46.504 C 139.588 46.756,139.874 47.128,139.952 47.333 C 140.031 47.537,140.338 47.815,140.636 47.951 C 140.933 48.086,141.176 48.278,141.176 48.377 C 141.176 48.475,141.327 48.556,141.510 48.556 C 141.693 48.556,141.784 48.653,141.710 48.772 C 141.637 48.890,141.719 49.041,141.892 49.108 C 142.066 49.174,142.266 49.462,142.338 49.748 C 142.409 50.034,142.602 50.267,142.766 50.267 C 143.158 50.267,144.515 51.592,144.691 52.146 C 144.766 52.383,145.065 52.637,145.355 52.710 C 145.645 52.783,145.882 52.937,145.882 53.052 C 145.882 53.168,146.032 53.262,146.216 53.262 C 146.399 53.262,146.489 53.359,146.416 53.477 C 146.343 53.596,146.434 53.751,146.617 53.821 C 146.801 53.892,146.952 54.081,146.952 54.243 C 146.952 54.404,147.217 54.703,147.540 54.908 C 147.864 55.113,148.340 55.500,148.599 55.768 C 148.859 56.037,149.268 56.257,149.509 56.257 C 149.755 56.257,149.947 56.397,149.947 56.578 C 149.947 56.782,150.152 56.898,150.510 56.898 C 150.837 56.898,151.282 57.123,151.570 57.433 C 152.409 58.339,155.722 58.106,155.722 57.142 C 155.722 57.008,156.004 56.898,156.348 56.898 C 156.693 56.898,157.119 56.754,157.296 56.578 C 157.472 56.401,157.720 56.257,157.846 56.257 C 157.972 56.257,158.075 56.112,158.075 55.936 C 158.075 55.747,158.270 55.615,158.549 55.615 C 159.049 55.615,160.000 54.681,160.000 54.191 C 160.000 54.033,160.096 53.904,160.214 53.904 C 160.332 53.904,160.430 53.783,160.433 53.636 C 160.436 53.489,160.822 53.193,161.289 52.977 C 161.834 52.726,162.186 52.399,162.270 52.068 C 162.341 51.783,162.485 51.551,162.590 51.551 C 162.695 51.551,162.781 51.406,162.781 51.230 C 162.781 51.053,162.925 50.909,163.102 50.909 C 163.278 50.909,163.422 50.834,163.422 50.742 C 163.422 50.650,163.711 50.466,164.064 50.333 C 164.495 50.170,164.706 49.944,164.706 49.644 C 164.706 49.390,164.844 49.198,165.027 49.198 C 165.203 49.198,165.348 49.095,165.348 48.969 C 165.348 48.655,165.768 48.281,166.471 47.970 C 166.794 47.827,167.059 47.559,167.059 47.374 C 167.059 47.189,167.299 46.815,167.594 46.543 C 167.888 46.270,168.128 45.938,168.128 45.804 C 168.128 45.671,168.348 45.561,168.616 45.561 C 169.143 45.561,169.711 45.020,169.939 44.301 C 170.018 44.053,170.172 43.850,170.282 43.850 C 170.392 43.850,170.481 43.706,170.481 43.529 C 170.481 43.349,170.673 43.209,170.919 43.209 C 171.400 43.209,172.406 42.247,172.406 41.787 C 172.406 41.628,172.503 41.497,172.620 41.497 C 172.738 41.497,172.834 41.376,172.834 41.227 C 172.834 41.078,173.217 40.791,173.685 40.588 C 174.256 40.340,174.580 40.043,174.671 39.682 C 174.745 39.386,174.892 39.144,174.996 39.144 C 175.101 39.144,175.187 39.000,175.187 38.824 C 175.187 38.647,175.332 38.503,175.508 38.503 C 175.684 38.503,175.829 38.417,175.829 38.312 C 175.829 38.207,176.068 38.061,176.360 37.988 C 176.688 37.906,176.943 37.651,177.025 37.323 C 177.099 37.031,177.244 36.791,177.349 36.791 C 177.454 36.791,177.540 36.647,177.540 36.471 C 177.540 36.294,177.684 36.150,177.861 36.150 C 178.037 36.150,178.182 36.064,178.182 35.959 C 178.182 35.854,178.406 35.712,178.680 35.643 C 178.986 35.566,179.336 35.188,179.589 34.660 C 179.815 34.188,180.120 33.801,180.267 33.799 C 180.414 33.798,180.535 33.701,180.535 33.583 C 180.535 33.465,180.664 33.369,180.822 33.369 C 181.312 33.369,182.246 32.418,182.246 31.918 C 182.246 31.652,182.379 31.444,182.549 31.444 C 182.716 31.444,182.884 31.368,182.923 31.274 C 182.963 31.181,183.356 30.884,183.797 30.615 C 184.368 30.267,184.599 29.976,184.599 29.608 C 184.599 29.324,184.708 29.091,184.842 29.091 C 184.975 29.091,185.299 28.860,185.560 28.578 C 185.822 28.295,186.218 28.030,186.440 27.988 C 186.697 27.939,186.870 27.697,186.913 27.324 C 186.950 27.002,187.083 26.738,187.209 26.738 C 187.335 26.738,187.661 26.497,187.933 26.203 C 188.206 25.909,188.580 25.668,188.765 25.668 C 188.950 25.668,189.187 25.452,189.292 25.187 C 189.545 24.549,190.705 23.316,191.057 23.312 C 191.400 23.307,192.299 22.387,192.299 22.042 C 192.299 21.904,192.588 21.548,192.941 21.251 C 194.135 20.246,193.733 14.785,192.490 15.134 C 192.385 15.163,192.299 15.064,192.299 14.914 C 192.299 14.600,190.348 12.701,190.107 12.781 C 190.019 12.810,189.947 12.690,189.947 12.513 C 189.947 12.337,189.802 12.193,189.626 12.193 C 189.449 12.193,189.305 12.099,189.305 11.984 C 189.305 11.870,188.851 11.322,188.296 10.767 L 187.287 9.758 185.569 9.721 C 184.624 9.701,183.669 9.729,183.448 9.783 M152.248 68.809 C 151.926 68.862,151.520 69.109,151.345 69.358 C 151.170 69.608,150.824 69.843,150.576 69.880 C 149.975 69.972,148.934 71.036,148.758 71.737 C 148.671 72.082,148.469 72.299,148.235 72.299 C 147.626 72.299,147.594 72.647,147.594 79.166 L 147.594 85.357 148.096 85.586 C 148.372 85.711,148.764 86.191,148.967 86.651 C 149.170 87.110,149.473 87.487,149.641 87.487 C 149.809 87.487,149.947 87.631,149.947 87.807 C 149.947 88.010,150.150 88.128,150.497 88.128 C 150.799 88.128,151.191 88.273,151.367 88.449 C 151.637 88.719,152.636 88.770,157.647 88.770 C 162.659 88.770,163.657 88.719,163.927 88.449 C 164.103 88.273,164.399 88.128,164.584 88.128 C 165.038 88.128,165.775 87.363,165.775 86.892 C 165.775 86.665,166.035 86.413,166.417 86.269 C 166.895 86.088,167.059 85.890,167.059 85.491 C 167.059 85.196,167.179 84.915,167.326 84.866 C 167.531 84.798,167.594 83.418,167.594 78.930 C 167.594 74.443,167.531 73.063,167.326 72.995 C 167.179 72.946,167.056 72.697,167.052 72.442 C 167.045 72.000,166.392 71.016,166.105 71.016 C 166.030 71.016,165.746 70.775,165.473 70.481 C 165.201 70.187,164.876 69.947,164.751 69.947 C 164.627 69.947,164.210 69.682,163.826 69.358 L 163.128 68.770 157.981 68.742 C 155.150 68.726,152.571 68.757,152.248 68.809 M151.205 109.465 C 151.191 109.553,151.191 109.698,151.205 109.786 C 151.219 109.874,150.963 109.947,150.636 109.947 C 150.302 109.947,149.878 110.138,149.668 110.383 C 149.462 110.624,149.200 110.762,149.085 110.692 C 148.971 110.621,148.865 110.713,148.850 110.896 C 148.836 111.080,148.799 111.326,148.770 111.444 C 148.741 111.561,148.705 111.795,148.690 111.964 C 148.675 112.132,148.447 112.300,148.182 112.338 L 147.701 112.406 147.644 118.717 L 147.587 125.027 148.425 125.801 C 148.886 126.227,149.297 126.756,149.340 126.977 C 149.414 127.362,149.784 127.382,157.596 127.436 L 165.775 127.492 165.775 126.954 C 165.775 126.560,165.889 126.417,166.202 126.417 C 166.501 126.417,166.773 126.112,167.111 125.401 C 167.689 124.183,167.880 113.179,167.326 112.995 C 167.179 112.946,167.059 112.669,167.059 112.379 C 167.059 112.089,166.830 111.640,166.551 111.381 C 165.227 110.152,164.935 109.947,164.515 109.947 C 164.257 109.947,164.064 109.809,164.064 109.626 C 164.064 109.278,151.259 109.118,151.205 109.465 M97.005 142.032 C 96.933 142.150,96.494 142.246,96.030 142.246 C 95.423 142.246,95.187 142.336,95.187 142.567 C 95.187 142.765,94.986 142.888,94.662 142.888 C 94.265 142.888,94.047 143.082,93.765 143.690 C 93.560 144.131,93.267 144.569,93.113 144.663 C 92.902 144.792,92.834 145.690,92.834 148.353 C 92.834 151.298,92.783 151.872,92.521 151.872 C 92.251 151.872,92.207 153.266,92.197 162.051 C 92.187 170.683,92.137 172.278,91.872 172.543 C 91.411 173.004,91.403 191.554,91.864 191.812 C 92.045 191.913,92.188 192.387,92.220 192.988 C 92.250 193.582,92.387 194.040,92.553 194.103 C 92.708 194.163,92.834 194.455,92.834 194.753 C 92.834 195.091,92.954 195.294,93.155 195.294 C 93.343 195.294,93.479 195.493,93.483 195.775 C 93.491 196.327,93.942 197.005,94.302 197.005 C 94.436 197.005,94.545 197.150,94.545 197.326 C 94.545 197.503,94.680 197.647,94.843 197.647 C 95.007 197.647,95.197 197.791,95.265 197.968 C 95.332 198.144,95.586 198.289,95.829 198.289 C 96.072 198.289,96.326 198.433,96.393 198.610 C 96.473 198.817,96.804 198.930,97.326 198.930 C 97.849 198.930,98.180 199.044,98.259 199.251 C 98.437 199.716,104.106 199.722,104.718 199.258 C 104.986 199.056,105.648 198.942,106.578 198.937 C 107.715 198.932,108.021 198.862,108.021 198.610 C 108.021 198.381,108.254 198.289,108.829 198.289 C 109.326 198.289,109.770 198.144,109.980 197.914 C 110.169 197.709,110.623 197.313,110.990 197.035 C 111.357 196.757,111.658 196.404,111.658 196.250 C 111.658 196.097,111.778 195.931,111.925 195.882 C 112.116 195.819,112.193 195.161,112.193 193.583 C 112.193 192.005,112.116 191.347,111.925 191.283 C 111.778 191.234,111.658 190.962,111.658 190.677 C 111.658 190.360,111.534 190.160,111.337 190.160 C 111.160 190.160,111.016 190.016,111.016 189.840 C 111.016 189.663,110.883 189.519,110.721 189.519 C 110.559 189.519,110.307 189.374,110.160 189.198 C 110.014 189.021,109.627 188.877,109.302 188.877 C 108.972 188.877,108.654 188.735,108.586 188.556 C 108.499 188.331,108.149 188.235,107.413 188.235 C 106.740 188.235,106.267 188.351,106.096 188.556 C 105.901 188.791,105.384 188.877,104.168 188.877 C 102.888 188.877,102.477 188.951,102.383 189.198 C 102.315 189.374,102.112 189.519,101.932 189.519 C 101.442 189.519,101.436 174.952,101.925 174.545 C 102.202 174.316,102.246 172.894,102.246 164.163 C 102.246 156.260,102.304 154.027,102.513 153.957 C 102.965 153.807,103.035 145.498,102.587 145.326 C 102.399 145.254,102.246 144.965,102.246 144.683 C 102.246 144.388,102.120 144.171,101.948 144.171 C 101.785 144.171,101.594 143.947,101.526 143.673 C 101.457 143.399,101.158 143.064,100.861 142.929 C 100.564 142.794,100.321 142.585,100.321 142.464 C 100.321 142.344,100.086 142.246,99.799 142.246 C 99.512 142.246,99.217 142.150,99.144 142.032 C 99.072 141.914,98.590 141.818,98.075 141.818 C 97.559 141.818,97.078 141.914,97.005 142.032 M50.969 142.560 C 50.872 142.732,50.471 142.898,50.078 142.928 C 49.684 142.958,49.315 143.106,49.257 143.256 C 49.199 143.406,49.018 143.529,48.854 143.529 C 48.690 143.529,48.556 143.674,48.556 143.850 C 48.556 144.050,48.354 144.171,48.021 144.171 C 47.727 144.171,47.487 144.267,47.487 144.385 C 47.487 144.503,47.342 144.599,47.166 144.599 C 46.989 144.599,46.845 144.743,46.845 144.920 C 46.845 145.096,46.701 145.241,46.524 145.241 C 46.348 145.241,46.203 145.375,46.203 145.539 C 46.203 145.702,46.053 145.894,45.869 145.965 C 45.685 146.035,45.594 146.190,45.668 146.309 C 45.741 146.427,45.651 146.524,45.467 146.524 C 45.284 146.524,45.134 146.658,45.134 146.822 C 45.134 146.986,44.989 147.175,44.813 147.243 C 44.636 147.311,44.492 147.562,44.492 147.801 C 44.492 148.044,44.351 148.235,44.171 148.235 C 43.983 148.235,43.847 148.434,43.843 148.717 C 43.840 148.981,43.695 149.385,43.523 149.613 C 43.350 149.841,43.209 150.245,43.209 150.510 C 43.209 150.774,43.112 151.050,42.995 151.123 C 42.877 151.196,42.781 151.635,42.781 152.098 C 42.781 152.705,42.691 152.941,42.460 152.941 C 42.217 152.941,42.139 153.204,42.139 154.026 C 42.139 154.705,42.019 155.231,41.818 155.432 C 41.594 155.656,41.497 156.204,41.497 157.250 C 41.497 158.231,41.396 158.848,41.205 159.040 C 41.012 159.233,40.900 159.935,40.875 161.110 C 40.855 162.088,40.746 162.920,40.633 162.959 C 40.517 162.999,40.428 164.182,40.428 165.686 C 40.428 167.905,40.375 168.342,40.107 168.342 C 39.834 168.342,39.786 168.902,39.786 172.101 C 39.786 175.157,39.726 175.919,39.465 176.180 C 39.189 176.457,39.144 177.950,39.144 186.974 C 39.144 196.086,39.186 197.463,39.465 197.570 C 39.642 197.637,39.786 197.780,39.786 197.887 C 39.786 197.994,40.213 198.521,40.735 199.057 L 41.683 200.034 44.208 200.024 C 45.751 200.019,46.762 199.929,46.807 199.794 C 46.847 199.672,47.009 199.572,47.166 199.572 C 47.322 199.572,47.579 199.283,47.735 198.930 C 47.891 198.578,48.140 198.289,48.288 198.289 C 48.435 198.289,48.556 198.155,48.556 197.991 C 48.556 197.827,48.701 197.637,48.877 197.570 C 49.152 197.464,49.198 196.547,49.198 191.130 L 49.198 184.813 52.727 184.813 L 56.257 184.813 56.257 185.735 C 56.257 186.241,56.398 186.843,56.571 187.071 C 56.822 187.403,56.886 188.336,56.892 191.711 C 56.897 195.321,56.945 195.936,57.219 195.936 C 57.451 195.936,57.540 196.173,57.540 196.791 C 57.540 197.262,57.626 197.647,57.731 197.647 C 57.836 197.647,57.978 197.871,58.047 198.145 C 58.115 198.419,58.415 198.754,58.711 198.889 C 59.008 199.025,59.251 199.234,59.251 199.354 C 59.251 199.474,59.396 199.572,59.572 199.572 C 59.749 199.572,59.893 199.668,59.893 199.786 C 59.893 199.904,60.307 200.000,60.813 200.000 C 61.319 200.000,61.837 200.105,61.965 200.233 C 62.133 200.400,62.238 200.400,62.341 200.233 C 62.420 200.105,62.902 200.000,63.411 200.000 C 64.813 200.000,66.310 199.006,66.310 198.075 C 66.310 197.837,66.453 197.647,66.631 197.647 C 66.829 197.647,66.952 197.446,66.952 197.125 C 66.952 196.838,67.048 196.543,67.166 196.471 C 67.283 196.398,67.380 195.724,67.380 194.973 C 67.380 194.222,67.283 193.549,67.166 193.476 C 67.033 193.394,66.952 191.384,66.952 188.157 C 66.952 183.927,66.894 182.893,66.638 182.554 C 66.384 182.218,66.322 181.215,66.317 177.290 C 66.310 172.512,66.238 171.652,65.860 171.886 C 65.749 171.954,65.668 169.654,65.668 166.423 C 65.668 161.660,65.621 160.824,65.348 160.719 C 65.080 160.617,65.027 160.009,65.027 157.089 C 65.027 154.894,64.947 153.583,64.813 153.583 C 64.695 153.583,64.599 153.072,64.599 152.447 C 64.599 151.780,64.469 151.141,64.285 150.896 C 64.112 150.668,63.968 150.120,63.964 149.679 C 63.959 149.112,63.863 148.877,63.636 148.877 C 63.422 148.877,63.316 148.663,63.316 148.235 C 63.316 147.807,63.209 147.594,62.995 147.594 C 62.795 147.594,62.674 147.392,62.674 147.059 C 62.674 146.765,62.589 146.524,62.485 146.524 C 62.381 146.524,62.235 146.356,62.161 146.150 C 61.825 145.223,60.970 144.171,60.550 144.171 C 60.424 144.171,60.321 144.027,60.321 143.850 C 60.321 143.674,60.133 143.529,59.904 143.529 C 59.674 143.529,59.410 143.409,59.315 143.262 C 58.673 142.258,51.476 141.652,50.969 142.560 M10.909 143.209 C 10.909 143.419,10.698 143.529,10.294 143.529 C 9.955 143.529,9.558 143.674,9.412 143.850 C 9.265 144.027,9.032 144.171,8.893 144.171 C 8.513 144.171,7.490 144.682,7.488 144.874 C 7.487 144.966,7.198 145.323,6.845 145.668 C 6.492 146.013,6.203 146.402,6.203 146.532 C 6.203 146.662,6.059 146.913,5.882 147.089 C 5.706 147.266,5.561 147.699,5.561 148.052 C 5.561 148.405,5.414 148.842,5.233 149.023 C 4.795 149.460,4.850 169.347,5.290 169.877 C 5.487 170.115,5.556 172.298,5.566 178.674 C 5.578 185.800,5.630 187.204,5.892 187.465 C 6.144 187.717,6.203 188.595,6.203 192.060 C 6.203 195.510,6.262 196.376,6.503 196.513 C 6.668 196.608,6.837 196.973,6.877 197.326 C 6.918 197.679,7.048 198.093,7.166 198.246 C 7.799 199.067,8.406 199.572,8.762 199.572 C 8.982 199.572,9.197 199.677,9.240 199.805 C 9.341 200.107,15.825 200.090,16.128 199.786 C 16.246 199.669,16.648 199.572,17.022 199.572 C 17.396 199.572,17.821 199.428,17.968 199.251 C 18.114 199.075,18.559 198.930,18.957 198.930 C 19.456 198.930,19.679 198.831,19.679 198.610 C 19.679 198.396,19.893 198.289,20.321 198.289 C 20.749 198.289,20.963 198.182,20.963 197.968 C 20.963 197.768,21.165 197.647,21.497 197.647 C 21.830 197.647,22.032 197.526,22.032 197.326 C 22.032 197.150,22.176 197.005,22.353 197.005 C 22.529 197.005,22.674 196.909,22.674 196.791 C 22.674 196.674,22.818 196.578,22.995 196.578 C 23.171 196.578,23.316 196.479,23.316 196.358 C 23.316 196.238,23.556 196.048,23.850 195.936 C 24.144 195.824,24.385 195.634,24.385 195.513 C 24.385 195.393,24.529 195.294,24.706 195.294 C 24.882 195.294,25.027 195.150,25.027 194.973 C 25.027 194.797,25.134 194.652,25.266 194.652 C 25.665 194.652,26.731 193.294,26.735 192.781 C 26.736 192.516,26.833 192.299,26.949 192.299 C 27.328 192.299,28.021 191.572,28.021 191.176 C 28.021 190.963,28.166 190.733,28.342 190.666 C 28.519 190.598,28.663 190.408,28.663 190.244 C 28.663 190.081,28.759 189.947,28.877 189.947 C 28.995 189.947,29.091 189.706,29.091 189.412 C 29.091 189.079,29.212 188.877,29.412 188.877 C 29.626 188.877,29.733 188.663,29.733 188.235 C 29.733 187.807,29.840 187.594,30.053 187.594 C 30.284 187.594,30.374 187.358,30.374 186.761 C 30.374 186.218,30.486 185.885,30.695 185.805 C 30.872 185.737,31.016 185.444,31.016 185.153 C 31.016 184.862,31.112 184.565,31.230 184.492 C 31.348 184.419,31.444 183.894,31.444 183.326 C 31.444 182.604,31.541 182.255,31.765 182.169 C 32.010 182.075,32.086 181.672,32.086 180.461 C 32.086 179.313,32.174 178.802,32.406 178.610 C 32.679 178.383,32.727 177.336,32.727 171.625 C 32.727 165.850,32.682 164.889,32.406 164.783 C 32.148 164.684,32.086 164.204,32.086 162.330 C 32.086 160.401,32.030 160.000,31.765 160.000 C 31.510 160.000,31.444 159.691,31.444 158.503 C 31.444 157.647,31.352 157.005,31.230 157.005 C 31.112 157.005,31.016 156.680,31.016 156.283 C 31.016 155.886,30.872 155.441,30.695 155.294 C 30.519 155.148,30.374 154.703,30.374 154.305 C 30.374 153.806,30.275 153.583,30.053 153.583 C 29.840 153.583,29.733 153.369,29.733 152.941 C 29.733 152.513,29.626 152.299,29.412 152.299 C 29.212 152.299,29.091 152.097,29.091 151.765 C 29.091 151.471,28.995 151.230,28.877 151.230 C 28.759 151.230,28.663 151.044,28.663 150.817 C 28.663 150.591,28.519 150.261,28.342 150.084 C 28.166 149.908,28.021 149.660,28.021 149.534 C 28.021 149.408,27.877 149.305,27.701 149.305 C 27.501 149.305,27.380 149.103,27.380 148.770 C 27.380 148.437,27.258 148.235,27.059 148.235 C 26.882 148.235,26.738 148.132,26.738 148.005 C 26.738 147.706,25.556 146.524,25.257 146.524 C 25.130 146.524,25.027 146.380,25.027 146.203 C 25.027 146.027,24.882 145.882,24.706 145.882 C 24.529 145.882,24.385 145.738,24.385 145.561 C 24.385 145.362,24.183 145.241,23.850 145.241 C 23.518 145.241,23.316 145.119,23.316 144.920 C 23.316 144.743,23.171 144.599,22.995 144.599 C 22.818 144.599,22.674 144.503,22.674 144.385 C 22.674 144.267,22.385 144.171,22.032 144.171 C 21.604 144.171,21.390 144.064,21.390 143.850 C 21.390 143.654,21.191 143.529,20.879 143.529 C 20.597 143.529,20.311 143.385,20.244 143.209 C 20.139 142.937,19.411 142.888,15.515 142.888 C 11.563 142.888,10.909 142.933,10.909 143.209 M75.722 143.209 C 75.722 143.387,75.532 143.529,75.294 143.529 C 74.743 143.529,74.011 144.262,74.011 144.813 C 74.011 145.051,73.868 145.241,73.690 145.241 C 73.409 145.241,73.369 146.690,73.369 157.005 C 73.369 167.320,73.409 168.770,73.690 168.770 C 73.972 168.770,74.011 170.458,74.011 182.674 C 74.011 191.800,74.084 196.578,74.225 196.578 C 74.342 196.578,74.439 196.722,74.439 196.899 C 74.439 198.295,76.424 200.000,78.049 200.000 C 78.487 200.000,78.950 200.105,79.077 200.233 C 79.245 200.400,79.350 200.400,79.454 200.233 C 79.533 200.105,80.025 200.000,80.547 200.000 C 81.070 200.000,81.497 199.904,81.497 199.786 C 81.497 199.668,81.594 199.572,81.711 199.572 C 81.989 199.572,82.781 198.780,82.781 198.503 C 82.781 198.385,82.925 198.289,83.102 198.289 C 83.278 198.289,83.422 198.144,83.422 197.968 C 83.422 197.791,83.519 197.647,83.636 197.647 C 83.925 197.647,83.932 165.087,83.643 164.798 C 83.518 164.673,83.412 160.926,83.376 155.308 C 83.329 148.115,83.255 146.005,83.048 145.936 C 82.901 145.887,82.781 145.635,82.781 145.377 C 82.781 144.914,82.120 144.171,81.709 144.171 C 81.592 144.171,81.497 144.027,81.497 143.850 C 81.497 143.674,81.363 143.529,81.199 143.529 C 81.035 143.529,80.846 143.385,80.778 143.209 C 80.679 142.949,80.184 142.888,78.189 142.888 C 76.139 142.888,75.722 142.942,75.722 143.209 M123.500 143.209 C 123.411 143.439,123.051 143.529,122.223 143.529 C 121.340 143.529,121.070 143.605,121.070 143.850 C 121.070 144.027,120.966 144.171,120.839 144.171 C 120.386 144.171,119.358 145.421,119.358 145.973 C 119.358 146.320,119.240 146.524,119.037 146.524 C 118.759 146.524,118.717 147.440,118.717 153.483 C 118.717 159.471,118.761 160.458,119.037 160.564 C 119.302 160.666,119.358 161.225,119.358 163.748 C 119.358 165.480,119.446 166.840,119.561 166.881 C 119.672 166.920,119.782 167.433,119.804 168.021 C 119.827 168.610,119.976 169.304,120.136 169.565 C 120.297 169.825,120.428 170.427,120.428 170.902 C 120.428 171.526,120.516 171.765,120.749 171.765 C 120.960 171.765,121.070 171.976,121.070 172.380 C 121.070 172.719,121.214 173.116,121.390 173.262 C 121.567 173.408,121.711 173.805,121.711 174.144 C 121.711 174.503,121.826 174.759,121.987 174.759 C 122.138 174.759,122.278 174.967,122.297 175.221 C 122.316 175.476,122.420 175.740,122.527 175.810 C 122.635 175.879,122.791 176.152,122.873 176.417 C 122.956 176.682,123.113 176.898,123.223 176.898 C 123.333 176.898,123.422 177.038,123.422 177.209 C 123.422 177.379,123.552 177.596,123.710 177.690 C 123.868 177.784,124.174 178.150,124.391 178.503 C 124.898 179.326,125.663 180.021,126.443 180.366 C 126.782 180.516,127.059 180.760,127.059 180.908 C 127.059 181.056,127.155 181.176,127.273 181.176 C 127.392 181.176,127.487 181.747,127.487 182.460 C 127.487 183.173,127.392 183.743,127.273 183.743 C 127.135 183.743,127.059 186.177,127.059 190.617 L 127.059 197.491 127.594 197.987 C 127.888 198.259,128.128 198.583,128.128 198.706 C 128.128 198.830,128.273 198.930,128.449 198.930 C 128.626 198.930,128.771 199.051,128.772 199.198 C 128.773 199.478,129.715 200.000,130.218 200.000 C 130.380 200.000,130.656 200.144,130.833 200.321 C 131.009 200.497,131.387 200.642,131.673 200.642 C 131.992 200.642,132.193 200.518,132.193 200.321 C 132.193 200.075,132.466 200.000,133.369 200.000 C 134.016 200.000,134.545 199.904,134.545 199.786 C 134.545 199.668,134.690 199.572,134.866 199.572 C 135.043 199.572,135.187 199.428,135.187 199.251 C 135.187 199.075,135.332 198.930,135.508 198.930 C 135.684 198.930,135.829 198.796,135.829 198.633 C 135.829 198.469,135.973 198.279,136.150 198.211 C 136.326 198.144,136.471 197.845,136.471 197.547 C 136.471 197.249,136.567 197.005,136.684 197.005 C 136.822 197.005,136.898 195.042,136.898 191.544 C 136.898 186.887,136.946 186.065,137.219 185.960 C 137.471 185.863,137.540 185.429,137.540 183.947 L 137.540 182.057 138.501 181.082 C 139.030 180.546,139.560 180.107,139.678 180.107 C 139.796 180.107,139.893 179.963,139.893 179.786 C 139.893 179.610,140.037 179.465,140.214 179.465 C 140.390 179.465,140.535 179.321,140.535 179.144 C 140.535 178.968,140.629 178.824,140.745 178.824 C 140.860 178.824,141.015 178.583,141.089 178.289 C 141.162 177.995,141.309 177.754,141.414 177.754 C 141.518 177.754,141.604 177.620,141.604 177.456 C 141.604 177.292,141.749 177.103,141.925 177.035 C 142.109 176.964,142.246 176.645,142.246 176.286 C 142.246 175.928,142.383 175.608,142.567 175.538 C 142.743 175.470,142.888 175.164,142.888 174.858 C 142.888 174.552,143.032 174.157,143.209 173.980 C 143.406 173.783,143.529 173.258,143.529 172.618 C 143.529 172.045,143.626 171.517,143.743 171.444 C 143.879 171.360,143.957 168.625,143.957 163.945 C 143.957 159.176,143.882 156.578,143.743 156.578 C 143.612 156.578,143.529 155.489,143.528 153.743 C 143.527 151.647,143.444 150.750,143.207 150.296 C 142.994 149.887,142.888 149.053,142.888 147.783 C 142.888 146.236,142.828 145.882,142.567 145.882 C 142.383 145.882,142.246 145.690,142.246 145.433 C 142.246 144.903,140.945 143.529,140.442 143.529 C 140.251 143.529,140.038 143.385,139.970 143.209 C 139.873 142.955,139.428 142.888,137.853 142.888 C 136.366 142.888,135.778 142.969,135.539 143.209 C 135.362 143.385,135.066 143.529,134.882 143.529 C 134.697 143.529,134.545 143.651,134.545 143.799 C 134.545 143.948,134.305 144.250,134.011 144.471 C 133.705 144.701,133.476 145.089,133.476 145.378 C 133.476 145.684,133.350 145.882,133.155 145.882 C 132.888 145.882,132.834 146.299,132.834 148.349 C 132.834 150.344,132.896 150.839,133.155 150.939 C 133.424 151.042,133.476 151.684,133.476 154.889 C 133.476 158.149,133.524 158.717,133.797 158.717 C 134.073 158.717,134.118 159.407,134.118 163.643 C 134.118 167.825,134.069 168.588,133.797 168.693 C 133.579 168.776,133.476 169.118,133.476 169.756 C 133.476 170.448,133.392 170.695,133.155 170.695 C 132.979 170.695,132.834 170.791,132.834 170.909 C 132.834 171.305,132.397 171.128,131.757 170.474 C 131.409 170.117,131.123 169.633,131.123 169.398 C 131.123 169.163,130.979 168.915,130.802 168.847 C 130.607 168.773,130.481 168.449,130.481 168.021 C 130.481 167.594,130.356 167.270,130.160 167.195 C 129.929 167.106,129.840 166.743,129.840 165.889 C 129.840 165.238,129.751 164.706,129.643 164.706 C 129.534 164.706,129.414 163.438,129.375 161.889 C 129.325 159.878,129.228 159.047,129.037 158.984 C 128.831 158.915,128.770 157.404,128.770 152.389 C 128.770 146.748,128.727 145.882,128.449 145.882 C 128.258 145.882,128.128 145.686,128.128 145.395 C 128.128 144.930,127.478 144.171,127.079 144.171 C 126.976 144.171,126.835 144.027,126.768 143.850 C 126.695 143.662,126.374 143.529,125.989 143.529 C 125.604 143.529,125.283 143.397,125.211 143.209 C 125.135 143.010,124.809 142.888,124.355 142.888 C 123.902 142.888,123.576 143.010,123.500 143.209 M16.955 153.850 C 17.218 153.997,17.510 154.238,17.604 154.385 C 17.698 154.532,17.963 154.652,18.192 154.652 C 18.422 154.652,18.610 154.797,18.610 154.973 C 18.610 155.150,18.754 155.294,18.930 155.294 C 19.107 155.294,19.251 155.419,19.251 155.572 C 19.251 156.063,19.777 157.002,20.053 157.004 C 20.201 157.005,20.321 157.249,20.321 157.547 C 20.321 157.845,20.465 158.144,20.642 158.211 C 20.840 158.288,20.963 158.613,20.963 159.067 C 20.963 159.521,21.085 159.846,21.283 159.923 C 21.513 160.011,21.604 160.369,21.604 161.182 C 21.604 161.806,21.696 162.349,21.807 162.389 C 21.919 162.428,22.028 163.310,22.051 164.350 C 22.080 165.718,22.171 166.270,22.382 166.351 C 22.838 166.526,22.809 177.015,22.353 177.190 C 22.113 177.282,22.032 177.665,22.032 178.710 C 22.032 179.499,21.939 180.107,21.818 180.107 C 21.701 180.107,21.604 180.492,21.604 180.963 C 21.604 181.581,21.515 181.818,21.283 181.818 C 21.083 181.818,20.963 182.021,20.963 182.360 C 20.963 182.657,20.818 182.957,20.642 183.024 C 20.465 183.092,20.321 183.367,20.321 183.636 C 20.321 183.905,20.170 184.183,19.986 184.254 C 19.803 184.324,19.707 184.471,19.775 184.580 C 19.842 184.689,19.752 184.924,19.574 185.101 C 19.397 185.279,19.251 185.527,19.251 185.653 C 19.251 185.779,19.107 185.882,18.930 185.882 C 18.754 185.882,18.610 185.984,18.610 186.108 C 18.610 186.360,17.326 187.594,17.065 187.594 C 16.973 187.594,16.898 187.738,16.898 187.914 C 16.898 188.091,16.754 188.235,16.578 188.235 C 16.328 188.235,16.257 187.951,16.257 186.963 C 16.257 186.057,16.165 185.638,15.938 185.511 C 15.663 185.358,15.611 183.865,15.564 174.752 C 15.520 166.425,15.451 164.183,15.241 164.225 C 15.032 164.266,14.973 163.094,14.973 158.930 L 14.973 153.583 15.725 153.583 C 16.138 153.583,16.692 153.703,16.955 153.850 M53.904 153.878 C 53.904 154.040,54.048 154.292,54.225 154.439 C 54.437 154.615,54.545 155.094,54.545 155.855 C 54.545 156.735,54.621 157.005,54.866 157.005 C 55.141 157.005,55.187 157.635,55.187 161.390 C 55.187 164.171,55.265 165.775,55.401 165.775 C 55.537 165.775,55.615 167.415,55.615 170.267 L 55.615 174.759 52.727 174.759 L 49.840 174.759 49.840 172.620 C 49.840 171.337,49.925 170.481,50.053 170.481 C 50.183 170.481,50.267 169.554,50.267 168.128 C 50.267 166.179,50.322 165.775,50.588 165.775 C 50.851 165.775,50.909 165.407,50.909 163.743 C 50.909 162.080,50.967 161.711,51.230 161.711 C 51.484 161.711,51.551 161.405,51.551 160.237 C 51.551 159.123,51.629 158.732,51.872 158.639 C 52.098 158.552,52.193 158.199,52.193 157.440 C 52.193 156.848,52.289 156.364,52.406 156.364 C 52.524 156.364,52.620 155.979,52.620 155.508 C 52.620 154.890,52.709 154.652,52.941 154.652 C 53.141 154.652,53.262 154.450,53.262 154.118 C 53.262 153.785,53.383 153.583,53.583 153.583 C 53.759 153.583,53.904 153.715,53.904 153.878 " stroke="none" fill="#04b47c" fill-rule="evenodd"></path><path id="path2" d="" stroke="none" fill="#8090100" fill-rule="evenodd"></path><path id="path3" d="" stroke="none" fill="#8090100" fill-rule="evenodd"></path><path id="path4" d="" stroke="none" fill="#8090100" fill-rule="evenodd"></path></g></svg>