<svg id="svg" version="1.1" xmlns="http://www.w3.org/2000/svg" xmlns:xlink="http://www.w3.org/1999/xlink" width="400" height="67.28971962616822" viewBox="0, 0, 400,67.28971962616822"><g id="svgg"><path id="path0" d="M356.200 8.033 C 356.090 8.143,356.000 8.172,356.000 8.096 C 356.000 8.021,355.904 8.039,355.787 8.136 C 355.671 8.233,355.182 8.336,354.702 8.364 C 354.047 8.404,353.806 8.489,353.737 8.708 C 353.672 8.913,353.470 9.000,353.056 9.000 C 352.609 9.000,352.448 9.079,352.382 9.333 C 352.305 9.627,351.850 9.775,351.292 9.686 C 351.223 9.676,351.167 9.817,351.167 10.000 C 351.167 10.222,351.056 10.333,350.833 10.333 C 350.523 10.333,350.385 10.707,350.494 11.250 C 350.513 11.342,350.472 11.361,350.404 11.293 C 350.222 11.111,349.833 11.492,349.833 11.854 C 349.833 12.026,349.731 12.167,349.605 12.167 C 349.355 12.167,349.171 12.989,349.169 14.125 C 349.167 14.602,349.099 14.820,348.958 14.792 C 348.621 14.724,348.568 44.682,348.905 44.928 C 349.099 45.071,349.154 45.677,349.178 47.961 C 349.205 50.454,349.247 50.856,349.509 51.138 C 349.738 51.384,349.820 51.787,349.856 52.838 C 349.895 53.969,349.954 54.229,350.186 54.290 C 350.352 54.333,350.513 54.602,350.577 54.941 C 350.636 55.258,350.793 55.559,350.926 55.610 C 351.058 55.661,351.167 55.809,351.167 55.940 C 351.167 56.070,351.279 56.220,351.417 56.273 C 351.554 56.326,351.667 56.473,351.667 56.601 C 351.667 56.729,351.817 56.833,352.000 56.833 C 352.222 56.833,352.333 56.944,352.333 57.167 C 352.333 57.382,352.444 57.500,352.647 57.500 C 352.821 57.500,353.000 57.649,353.048 57.833 C 353.111 58.075,353.276 58.167,353.643 58.167 C 353.930 58.167,354.213 58.280,354.296 58.427 C 354.452 58.707,354.769 58.800,355.625 58.821 C 355.999 58.829,356.167 58.914,356.167 59.094 C 356.167 59.320,356.478 59.347,358.542 59.302 C 360.171 59.266,360.906 59.192,360.883 59.064 C 360.860 58.944,361.382 58.848,362.365 58.792 C 363.525 58.726,363.917 58.642,364.032 58.436 C 364.126 58.269,364.402 58.167,364.758 58.167 C 365.173 58.167,365.333 58.093,365.333 57.901 C 365.333 57.755,365.483 57.596,365.667 57.548 C 365.850 57.500,366.000 57.329,366.000 57.167 C 366.000 57.005,366.150 56.833,366.333 56.785 C 366.533 56.733,366.667 56.558,366.667 56.349 C 366.667 56.157,366.760 56.019,366.875 56.042 C 366.990 56.065,367.065 55.990,367.042 55.875 C 367.019 55.760,367.066 55.667,367.147 55.667 C 367.317 55.667,367.395 52.854,367.237 52.442 C 367.178 52.290,367.027 52.167,366.899 52.167 C 366.762 52.167,366.667 51.995,366.667 51.750 C 366.667 51.444,366.578 51.333,366.333 51.333 C 366.111 51.333,366.000 51.222,366.000 51.000 C 366.000 50.817,365.896 50.667,365.769 50.667 C 365.643 50.667,365.499 50.515,365.450 50.329 C 365.402 50.143,365.299 50.001,365.223 50.015 C 364.709 50.105,364.167 49.969,364.167 49.750 C 364.167 49.407,361.914 49.384,361.782 49.726 C 361.724 49.878,361.226 49.990,360.251 50.069 C 358.016 50.250,358.048 50.311,357.975 45.693 C 357.924 42.495,357.880 41.994,357.625 41.713 C 357.389 41.452,357.333 41.079,357.333 39.769 L 357.333 38.148 358.003 38.199 C 358.371 38.227,358.677 38.325,358.681 38.417 C 358.706 38.882,361.583 38.965,361.583 38.500 C 361.583 38.313,361.823 38.237,362.542 38.200 C 363.245 38.163,363.500 38.086,363.500 37.908 C 363.500 37.775,363.607 37.667,363.739 37.667 C 363.870 37.667,364.027 37.509,364.089 37.317 C 364.150 37.124,364.342 36.824,364.516 36.650 C 364.795 36.371,364.833 36.079,364.828 34.208 C 364.823 32.201,364.624 31.265,364.275 31.614 C 364.216 31.673,364.167 31.522,364.167 31.278 C 364.167 30.954,364.082 30.833,363.853 30.833 C 363.676 30.833,363.500 30.683,363.449 30.490 C 363.400 30.301,363.260 30.160,363.138 30.176 C 362.609 30.248,361.502 30.156,361.520 30.042 C 361.564 29.760,361.492 29.501,361.375 29.520 C 361.306 29.531,360.369 29.531,359.292 29.520 L 357.333 29.500 357.333 23.571 C 357.333 17.142,357.330 17.167,358.243 17.167 C 358.482 17.167,358.720 17.279,358.773 17.417 C 358.848 17.612,359.179 17.667,360.275 17.667 C 361.450 17.667,361.739 17.721,362.038 18.000 C 362.295 18.239,362.627 18.333,363.213 18.333 C 363.772 18.333,364.162 18.436,364.444 18.658 C 364.931 19.041,366.134 18.997,366.435 18.586 C 366.548 18.432,366.885 18.333,367.302 18.333 C 367.698 18.333,368.039 18.239,368.117 18.108 C 368.190 17.984,368.421 17.792,368.630 17.683 C 368.838 17.573,368.965 17.412,368.911 17.325 C 368.858 17.238,368.893 17.167,368.990 17.167 C 369.087 17.167,369.167 17.057,369.167 16.923 C 369.167 16.788,369.317 16.598,369.500 16.500 C 370.013 16.225,370.007 12.444,369.492 12.027 C 369.305 11.875,369.139 11.581,369.124 11.375 C 369.108 11.169,369.002 11.000,368.887 11.000 C 368.772 11.000,368.599 10.851,368.501 10.668 C 368.403 10.486,368.269 10.345,368.203 10.355 C 367.575 10.449,366.667 10.299,366.667 10.101 C 366.667 9.792,366.297 9.667,365.388 9.667 C 364.888 9.667,364.494 9.555,364.212 9.333 C 363.866 9.061,363.536 9.000,362.406 9.000 C 361.348 9.000,360.960 8.936,360.751 8.727 C 360.562 8.539,360.081 8.430,359.197 8.377 C 358.339 8.326,357.873 8.224,357.783 8.067 C 357.619 7.779,356.478 7.755,356.200 8.033 M294.721 8.468 C 294.430 8.496,294.102 8.627,293.992 8.760 C 293.847 8.934,293.408 9.000,292.385 9.000 C 290.992 9.000,290.231 9.199,290.424 9.512 C 290.480 9.602,290.463 9.657,290.387 9.635 C 290.155 9.569,289.485 10.008,289.581 10.164 C 289.631 10.244,289.599 10.355,289.510 10.410 C 289.421 10.466,289.391 10.624,289.444 10.762 C 289.497 10.900,289.475 11.002,289.395 10.987 C 288.827 10.883,288.833 10.708,288.833 26.571 C 288.833 41.179,288.851 42.161,289.125 42.435 C 289.393 42.703,289.418 43.279,289.431 49.405 C 289.446 56.162,289.479 56.783,289.814 56.708 C 289.916 56.685,290.000 56.854,290.000 57.083 C 290.000 57.380,290.090 57.500,290.314 57.500 C 290.488 57.500,290.667 57.649,290.715 57.833 C 290.763 58.017,290.922 58.167,291.068 58.167 C 291.214 58.167,291.333 58.230,291.333 58.307 C 291.333 58.915,295.416 59.084,296.000 58.500 C 296.183 58.317,296.446 58.167,296.583 58.167 C 296.722 58.167,296.833 58.019,296.833 57.833 C 296.833 57.639,296.944 57.500,297.099 57.500 C 297.245 57.500,297.404 57.350,297.452 57.167 C 297.500 56.983,297.643 56.833,297.769 56.833 C 297.896 56.833,298.009 56.758,298.021 56.667 C 298.032 56.575,298.060 56.425,298.083 56.333 C 298.106 56.242,298.140 54.535,298.159 52.542 C 298.178 50.548,298.231 49.010,298.277 49.125 C 298.323 49.240,298.467 49.333,298.597 49.333 C 298.727 49.333,298.833 49.483,298.833 49.667 C 298.833 49.852,298.944 50.000,299.083 50.000 C 299.222 50.000,299.333 50.148,299.333 50.333 C 299.333 50.556,299.444 50.667,299.667 50.667 C 299.971 50.667,300.109 51.021,300.015 51.556 C 300.001 51.633,300.143 51.735,300.329 51.784 C 300.517 51.833,300.667 52.011,300.667 52.186 C 300.667 52.359,300.782 52.500,300.922 52.500 C 301.062 52.500,301.226 52.631,301.287 52.792 C 301.347 52.952,301.498 53.160,301.622 53.253 C 301.747 53.347,301.862 53.602,301.878 53.820 C 301.895 54.043,302.038 54.251,302.204 54.295 C 302.367 54.337,302.500 54.513,302.500 54.686 C 302.500 54.889,302.618 55.000,302.833 55.000 C 303.058 55.000,303.167 55.111,303.167 55.340 C 303.167 55.527,303.317 55.842,303.500 56.038 C 303.683 56.235,303.833 56.495,303.833 56.615 C 303.833 56.735,303.946 56.833,304.083 56.833 C 304.222 56.833,304.333 56.981,304.333 57.167 C 304.333 57.382,304.444 57.500,304.647 57.500 C 304.821 57.500,305.000 57.649,305.048 57.833 C 305.115 58.089,305.276 58.167,305.734 58.167 C 306.135 58.167,306.333 58.243,306.333 58.399 C 306.333 58.928,308.862 58.998,309.305 58.481 C 309.453 58.308,309.701 58.167,309.857 58.167 C 310.319 58.167,310.667 57.980,310.667 57.732 C 310.667 57.604,310.779 57.500,310.917 57.500 C 311.054 57.500,311.167 57.359,311.167 57.186 C 311.167 57.012,311.316 56.833,311.500 56.785 C 311.741 56.722,311.833 56.558,311.833 56.194 C 311.833 55.849,311.931 55.658,312.141 55.591 C 312.624 55.438,312.652 53.318,312.178 52.845 C 311.992 52.658,311.822 52.279,311.801 52.003 C 311.777 51.689,311.650 51.464,311.465 51.405 C 311.301 51.353,311.167 51.207,311.167 51.080 C 311.167 50.954,311.069 50.790,310.949 50.717 C 310.829 50.643,310.632 50.340,310.512 50.042 C 310.391 49.744,310.227 49.500,310.146 49.500 C 310.066 49.500,310.000 49.380,310.000 49.234 C 310.000 49.088,309.850 48.930,309.667 48.882 C 309.483 48.834,309.333 48.658,309.333 48.492 C 309.333 48.325,309.183 48.142,309.000 48.083 C 308.766 48.009,308.667 47.831,308.667 47.489 C 308.667 47.176,308.581 47.000,308.428 47.000 C 308.297 47.000,308.142 46.850,308.083 46.667 C 308.025 46.483,307.870 46.333,307.739 46.333 C 307.607 46.333,307.500 46.183,307.500 46.000 C 307.500 45.778,307.389 45.667,307.167 45.667 C 306.923 45.667,306.833 45.556,306.833 45.251 C 306.833 45.017,306.688 44.746,306.500 44.628 C 306.317 44.513,306.167 44.329,306.167 44.218 C 306.167 44.107,306.067 43.957,305.946 43.883 C 305.824 43.810,305.675 43.614,305.614 43.448 C 305.552 43.282,305.425 43.193,305.330 43.252 C 305.236 43.310,305.080 43.134,304.984 42.859 C 304.888 42.585,304.703 42.319,304.572 42.269 C 304.441 42.218,304.333 42.025,304.333 41.839 C 304.333 41.611,304.224 41.500,304.000 41.500 C 303.782 41.500,303.667 41.389,303.667 41.179 C 303.667 41.002,303.535 40.823,303.375 40.782 C 303.097 40.709,303.097 40.704,303.375 40.686 C 303.535 40.675,303.667 40.554,303.667 40.417 C 303.667 40.279,303.805 40.167,303.974 40.167 C 304.143 40.167,304.417 40.017,304.583 39.833 C 304.749 39.650,305.023 39.500,305.192 39.500 C 305.363 39.500,305.500 39.381,305.500 39.234 C 305.500 39.088,305.650 38.930,305.833 38.882 C 306.018 38.833,306.167 38.654,306.167 38.481 C 306.167 38.308,306.282 38.167,306.422 38.167 C 306.562 38.167,306.719 38.057,306.771 37.923 C 306.822 37.789,307.007 37.634,307.182 37.578 C 307.357 37.523,307.500 37.378,307.500 37.257 C 307.500 37.135,307.605 36.995,307.734 36.946 C 307.863 36.896,308.019 36.626,308.081 36.345 C 308.143 36.063,308.300 35.833,308.430 35.833 C 308.568 35.833,308.667 35.668,308.667 35.435 C 308.667 35.160,308.756 35.044,308.954 35.060 C 309.244 35.083,309.274 35.014,309.313 34.250 C 309.325 34.003,309.434 33.833,309.580 33.833 C 309.716 33.833,309.873 33.627,309.929 33.375 C 310.133 32.460,310.194 32.330,310.371 32.440 C 310.474 32.504,310.504 32.474,310.440 32.371 C 310.378 32.271,310.404 32.143,310.497 32.085 C 310.590 32.027,310.667 31.720,310.667 31.402 C 310.667 31.041,310.761 30.787,310.917 30.727 C 311.109 30.653,311.167 30.334,311.167 29.341 C 311.167 28.263,311.221 28.002,311.500 27.750 C 312.084 27.222,311.990 20.333,311.399 20.333 C 311.226 20.333,311.167 20.075,311.167 19.321 C 311.167 18.644,311.084 18.227,310.917 18.060 C 310.779 17.922,310.657 17.665,310.646 17.488 C 310.634 17.311,310.606 17.092,310.583 17.000 C 310.560 16.908,310.532 16.758,310.521 16.667 C 310.509 16.575,310.387 16.500,310.250 16.500 C 310.034 16.500,309.898 15.977,309.980 15.458 C 309.991 15.390,309.886 15.333,309.746 15.333 C 309.606 15.333,309.426 15.162,309.347 14.951 C 309.267 14.741,309.081 14.470,308.934 14.348 C 308.787 14.226,308.667 14.057,308.667 13.973 C 308.667 13.702,307.944 12.833,307.719 12.833 C 307.520 12.833,307.428 12.623,307.480 12.292 C 307.491 12.223,307.350 12.167,307.167 12.167 C 306.983 12.167,306.833 12.063,306.833 11.937 C 306.833 11.811,306.608 11.614,306.333 11.500 C 306.058 11.386,305.833 11.234,305.833 11.163 C 305.833 11.091,305.603 10.952,305.321 10.854 C 305.039 10.756,304.856 10.598,304.914 10.504 C 304.979 10.398,304.769 10.333,304.363 10.333 C 303.846 10.333,303.687 10.262,303.618 10.000 C 303.554 9.753,303.391 9.667,302.987 9.667 C 302.688 9.667,302.298 9.535,302.122 9.375 C 301.879 9.155,301.405 9.063,300.192 9.000 C 299.028 8.940,298.595 8.859,298.625 8.708 C 298.651 8.576,298.453 8.492,298.083 8.479 C 296.589 8.426,295.203 8.421,294.721 8.468 M322.004 9.325 C 321.884 9.550,321.655 9.667,321.333 9.667 C 321.016 9.667,320.783 9.783,320.667 10.000 C 320.569 10.183,320.378 10.333,320.244 10.333 C 320.110 10.333,320.000 10.441,320.000 10.572 C 320.000 10.703,319.850 10.858,319.667 10.917 C 319.423 10.994,319.333 11.169,319.333 11.569 C 319.333 11.902,319.204 12.232,319.002 12.414 C 318.477 12.890,318.474 56.147,318.999 56.285 C 319.239 56.348,319.333 56.512,319.333 56.868 C 319.333 57.216,319.428 57.389,319.651 57.448 C 319.826 57.493,320.007 57.674,320.052 57.849 C 320.100 58.030,320.281 58.167,320.475 58.167 C 320.661 58.167,320.867 58.253,320.933 58.359 C 321.012 58.488,320.974 58.507,320.817 58.418 C 320.649 58.322,320.632 58.337,320.756 58.473 C 321.270 59.035,324.813 58.987,325.233 58.412 C 325.364 58.233,325.609 58.085,325.777 58.085 C 325.946 58.084,326.064 57.987,326.040 57.870 C 326.016 57.753,326.129 57.609,326.290 57.549 C 326.670 57.409,326.828 57.169,326.831 56.726 C 326.832 56.530,326.946 56.326,327.083 56.273 C 327.297 56.191,327.333 55.543,327.333 51.858 C 327.333 47.739,327.348 47.535,327.653 47.455 C 328.132 47.330,328.129 44.538,327.650 44.203 C 327.362 44.001,327.336 43.772,327.365 41.699 C 327.382 40.444,327.423 39.848,327.456 40.375 C 327.500 41.073,327.582 41.333,327.758 41.333 C 327.943 41.333,328.000 41.571,328.000 42.335 C 328.000 43.130,328.069 43.395,328.333 43.622 C 328.589 43.840,328.667 44.114,328.667 44.787 C 328.667 45.556,328.709 45.667,329.000 45.667 C 329.296 45.667,329.527 47.175,329.292 47.570 C 329.269 47.608,329.412 47.815,329.611 48.028 C 329.855 48.291,329.970 48.629,329.969 49.073 C 329.968 49.475,330.067 49.803,330.224 49.918 C 330.386 50.037,330.495 50.419,330.520 50.958 C 330.550 51.622,330.625 51.827,330.863 51.889 C 331.108 51.953,331.167 52.137,331.167 52.833 C 331.167 53.558,331.221 53.712,331.500 53.785 C 331.750 53.851,331.833 54.012,331.833 54.436 C 331.833 54.889,331.899 55.000,332.167 55.000 C 332.350 55.000,332.491 55.056,332.480 55.125 C 332.395 55.663,332.533 56.167,332.766 56.167 C 332.912 56.167,333.070 56.317,333.118 56.500 C 333.166 56.683,333.301 56.833,333.417 56.833 C 333.533 56.833,333.667 56.983,333.715 57.167 C 333.779 57.412,333.942 57.500,334.333 57.500 C 334.724 57.500,334.888 57.588,334.952 57.833 C 335.104 58.414,339.833 58.316,339.833 57.732 C 339.833 57.604,339.983 57.500,340.167 57.500 C 340.389 57.500,340.500 57.389,340.500 57.167 C 340.500 56.983,340.604 56.833,340.732 56.833 C 340.987 56.833,341.167 56.483,341.167 55.986 C 341.167 55.811,341.279 55.667,341.417 55.667 C 341.611 55.667,341.667 55.444,341.667 54.667 C 341.667 54.117,341.723 53.676,341.792 53.686 C 342.337 53.773,342.333 53.888,342.333 37.068 C 342.333 20.658,342.330 20.468,342.003 20.382 C 341.687 20.300,341.671 20.125,341.628 16.273 C 341.593 13.162,341.536 12.259,341.375 12.292 C 341.249 12.317,341.166 12.152,341.166 11.875 C 341.165 11.225,340.293 10.333,339.658 10.333 C 339.388 10.333,339.176 10.277,339.186 10.208 C 339.265 9.710,339.125 9.667,337.439 9.667 C 335.964 9.667,335.650 9.715,335.288 10.000 C 335.055 10.183,334.745 10.333,334.599 10.333 C 334.453 10.333,334.333 10.446,334.333 10.583 C 334.333 10.722,334.185 10.833,334.000 10.833 C 333.793 10.833,333.667 10.944,333.667 11.127 C 333.667 11.288,333.517 11.513,333.333 11.628 C 333.090 11.780,333.000 12.017,333.000 12.501 C 333.000 12.920,332.889 13.278,332.700 13.467 C 332.299 13.868,332.323 16.625,332.729 16.922 C 332.949 17.082,332.987 18.001,333.011 23.639 C 333.026 27.303,333.104 30.211,333.189 30.264 C 333.271 30.315,333.296 30.426,333.243 30.512 C 333.190 30.597,333.264 30.667,333.407 30.667 C 333.615 30.667,333.667 30.878,333.667 31.734 C 333.667 32.720,333.641 32.795,333.333 32.715 C 333.052 32.641,333.000 32.488,333.000 31.731 C 333.000 31.056,332.917 30.751,332.667 30.500 C 332.414 30.247,332.333 29.944,332.333 29.250 C 332.333 28.546,332.275 28.333,332.083 28.333 C 331.857 28.333,331.710 27.243,331.820 26.380 C 331.834 26.269,331.693 26.082,331.506 25.965 C 331.218 25.785,331.167 25.579,331.167 24.611 C 331.167 23.609,331.126 23.458,330.833 23.382 C 330.540 23.305,330.500 23.154,330.500 22.132 C 330.500 21.109,330.460 20.958,330.167 20.882 C 329.874 20.805,329.833 20.654,329.833 19.647 C 329.833 18.739,329.781 18.500,329.583 18.500 C 329.390 18.500,329.333 18.282,329.333 17.537 C 329.333 16.780,329.262 16.513,329.000 16.289 C 328.740 16.066,328.667 15.797,328.667 15.069 C 328.667 14.276,328.617 14.122,328.333 14.048 C 328.082 13.983,327.995 13.812,327.981 13.356 C 327.949 12.354,327.925 12.251,327.722 12.250 C 327.426 12.250,327.347 12.114,327.303 11.533 C 327.280 11.230,327.170 11.000,327.048 11.000 C 326.930 11.000,326.833 10.850,326.833 10.667 C 326.833 10.444,326.722 10.333,326.500 10.333 C 326.278 10.333,326.167 10.222,326.167 10.000 C 326.167 9.754,326.056 9.667,325.740 9.667 C 325.470 9.667,325.356 9.599,325.428 9.481 C 325.626 9.162,325.182 9.044,323.660 9.013 C 322.329 8.986,322.170 9.016,322.004 9.325 M218.042 9.773 C 217.927 9.822,217.833 9.967,217.833 10.097 C 217.833 10.227,217.748 10.333,217.644 10.333 C 217.310 10.333,216.595 11.235,216.534 11.732 C 216.502 11.997,216.369 12.322,216.238 12.452 C 216.107 12.583,216.000 12.741,216.000 12.804 C 215.994 14.063,215.990 26.448,215.994 28.280 C 215.999 30.301,216.050 30.860,216.250 31.060 C 216.634 31.443,216.625 45.018,216.240 45.402 C 216.075 45.568,215.948 46.100,215.891 46.873 C 215.840 47.553,215.698 48.199,215.567 48.346 C 215.438 48.491,215.333 48.810,215.333 49.055 C 215.333 49.389,215.250 49.500,215.000 49.500 C 214.817 49.500,214.667 49.576,214.667 49.668 C 214.667 49.768,214.531 49.751,214.333 49.628 C 214.108 49.487,214.000 49.239,214.000 48.861 C 214.000 48.443,213.916 48.280,213.669 48.216 C 213.347 48.131,213.336 47.957,213.294 42.273 C 213.260 37.807,213.202 36.426,213.049 36.456 C 212.938 36.478,212.800 36.253,212.743 35.956 C 212.620 35.327,211.493 34.500,210.758 34.500 C 210.511 34.500,210.197 34.388,210.060 34.250 C 209.730 33.920,208.687 33.920,208.560 34.250 C 208.493 34.425,208.220 34.500,207.650 34.500 C 207.017 34.500,206.790 34.574,206.628 34.833 C 206.513 35.017,206.325 35.167,206.210 35.167 C 206.094 35.167,206.000 35.317,206.000 35.500 C 206.000 35.722,205.889 35.833,205.667 35.833 C 205.444 35.833,205.333 35.944,205.333 36.167 C 205.333 36.350,205.229 36.500,205.101 36.500 C 204.721 36.500,204.691 36.797,204.675 40.774 C 204.661 44.127,204.626 44.608,204.381 44.792 C 204.228 44.906,204.164 45.000,204.239 45.000 C 204.313 45.000,204.305 45.094,204.220 45.208 C 204.136 45.323,204.081 46.129,204.098 47.000 C 204.136 48.949,204.116 48.833,204.417 48.833 C 204.620 48.833,204.668 49.118,204.672 50.375 C 204.676 51.676,205.066 53.197,205.192 52.407 C 205.205 52.321,205.262 52.587,205.317 53.000 C 205.385 53.511,205.496 53.750,205.667 53.750 C 205.835 53.750,205.934 53.954,205.968 54.375 C 206.002 54.784,206.103 55.000,206.260 55.000 C 206.392 55.000,206.500 55.150,206.500 55.333 C 206.500 55.556,206.611 55.667,206.833 55.667 C 207.035 55.667,207.167 55.778,207.167 55.949 C 207.167 56.271,208.417 57.500,208.745 57.500 C 208.864 57.500,209.000 57.650,209.048 57.833 C 209.096 58.017,209.255 58.167,209.401 58.167 C 209.547 58.167,209.667 58.274,209.667 58.405 C 209.667 58.569,209.956 58.679,210.597 58.759 C 211.142 58.827,211.563 58.970,211.614 59.104 C 211.749 59.456,216.304 59.436,216.440 59.083 C 216.502 58.920,216.762 58.833,217.184 58.833 C 217.611 58.833,217.947 58.719,218.167 58.500 C 218.356 58.310,218.722 58.167,219.016 58.167 C 219.383 58.167,219.555 58.075,219.615 57.847 C 219.661 57.672,219.876 57.483,220.094 57.429 C 220.312 57.374,220.571 57.178,220.670 56.993 C 220.769 56.809,220.923 56.703,221.012 56.758 C 221.102 56.813,221.154 56.790,221.129 56.706 C 221.104 56.622,221.327 56.347,221.625 56.095 C 221.923 55.843,222.167 55.494,222.167 55.319 C 222.167 55.143,222.279 55.000,222.417 55.000 C 222.554 55.000,222.667 54.890,222.667 54.756 C 222.667 54.622,222.817 54.431,223.000 54.333 C 223.218 54.217,223.333 53.984,223.333 53.661 C 223.333 53.351,223.419 53.167,223.564 53.167 C 223.826 53.167,223.994 52.667,223.998 51.875 C 223.999 51.524,224.082 51.333,224.232 51.333 C 224.557 51.333,224.613 51.101,224.654 49.593 C 224.679 48.669,224.763 48.216,224.930 48.093 C 225.263 47.847,225.209 13.392,224.875 13.458 C 224.728 13.488,224.667 13.225,224.667 12.568 C 224.667 11.776,224.617 11.622,224.333 11.548 C 224.149 11.500,224.000 11.321,224.000 11.147 C 224.000 10.975,223.944 10.842,223.875 10.853 C 223.531 10.907,223.333 10.809,223.333 10.583 C 223.333 10.444,223.185 10.333,223.000 10.333 C 222.707 10.333,222.594 10.169,222.641 9.808 C 222.658 9.680,218.343 9.647,218.042 9.773 M240.184 9.785 C 240.254 10.203,240.116 10.333,239.606 10.333 C 239.297 10.333,238.854 10.483,238.621 10.667 C 238.388 10.850,238.074 11.000,237.922 11.000 C 237.770 11.000,237.696 11.079,237.757 11.178 C 237.817 11.276,237.712 11.396,237.522 11.446 C 237.333 11.495,237.133 11.678,237.078 11.851 C 237.023 12.025,236.870 12.167,236.739 12.167 C 236.607 12.167,236.500 12.317,236.500 12.500 C 236.500 12.722,236.389 12.833,236.167 12.833 C 235.960 12.833,235.833 12.944,235.833 13.127 C 235.833 13.288,235.683 13.513,235.500 13.628 C 235.312 13.746,235.167 14.017,235.167 14.251 C 235.167 14.509,235.072 14.667,234.917 14.667 C 234.751 14.667,234.667 14.833,234.667 15.161 C 234.667 15.484,234.552 15.717,234.333 15.833 C 234.098 15.959,234.000 16.182,234.000 16.589 C 234.000 17.050,233.934 17.167,233.677 17.167 C 233.428 17.167,233.342 17.302,233.302 17.753 C 233.273 18.076,233.178 18.333,233.090 18.324 C 232.855 18.301,232.692 18.818,232.678 19.625 C 232.671 20.098,232.597 20.319,232.458 20.292 C 232.311 20.262,232.237 20.591,232.205 21.417 C 232.169 22.333,232.089 22.642,231.834 22.857 C 231.540 23.103,231.504 23.388,231.463 25.773 C 231.437 27.227,231.350 28.392,231.269 28.361 C 230.918 28.228,230.855 28.988,230.855 33.386 C 230.855 37.844,230.869 38.040,231.178 38.121 C 231.481 38.201,231.500 38.380,231.500 41.202 C 231.500 44.058,231.516 44.202,231.833 44.285 C 232.137 44.364,232.167 44.512,232.167 45.936 C 232.167 47.215,232.212 47.500,232.417 47.500 C 232.605 47.500,232.667 47.703,232.667 48.327 C 232.667 48.984,232.735 49.192,233.000 49.333 C 233.264 49.474,233.333 49.682,233.333 50.328 C 233.333 50.998,233.393 51.163,233.667 51.250 C 233.915 51.329,234.000 51.502,234.000 51.928 C 234.000 52.378,234.067 52.500,234.315 52.500 C 234.488 52.500,234.626 52.594,234.622 52.708 C 234.595 53.431,234.693 53.833,234.897 53.833 C 235.024 53.833,235.167 53.983,235.215 54.167 C 235.263 54.350,235.412 54.500,235.547 54.500 C 235.687 54.500,235.836 54.721,235.895 55.018 C 235.968 55.380,236.072 55.508,236.241 55.443 C 236.388 55.387,236.524 55.478,236.586 55.675 C 236.643 55.854,236.797 56.000,236.928 56.000 C 237.059 56.000,237.167 56.075,237.167 56.167 C 237.167 56.258,237.279 56.333,237.417 56.333 C 237.554 56.333,237.667 56.446,237.667 56.583 C 237.667 56.721,237.808 56.833,237.981 56.833 C 238.154 56.833,238.333 56.982,238.382 57.167 C 238.436 57.376,238.609 57.500,238.846 57.500 C 239.053 57.500,239.173 57.549,239.114 57.609 C 238.895 57.827,239.603 58.156,240.302 58.161 C 240.696 58.164,240.979 58.233,240.928 58.314 C 240.772 58.567,241.506 58.662,243.625 58.664 C 245.330 58.666,245.667 58.625,245.667 58.417 C 245.667 58.236,245.852 58.167,246.333 58.167 C 246.889 58.167,247.000 58.111,247.000 57.833 C 247.000 57.565,247.111 57.500,247.572 57.500 C 247.998 57.500,248.171 57.415,248.250 57.167 C 248.308 56.983,248.463 56.833,248.595 56.833 C 248.726 56.833,248.833 56.721,248.833 56.583 C 248.833 56.446,248.942 56.333,249.076 56.333 C 249.390 56.333,250.167 55.556,250.167 55.242 C 250.167 55.109,250.274 55.000,250.405 55.000 C 250.537 55.000,250.692 54.850,250.750 54.667 C 250.808 54.483,250.963 54.333,251.095 54.333 C 251.256 54.333,251.333 54.145,251.333 53.750 C 251.333 53.278,251.397 53.167,251.667 53.167 C 251.953 53.167,252.000 53.056,252.000 52.386 C 252.000 51.842,252.098 51.500,252.323 51.261 C 252.553 51.016,252.658 50.638,252.685 49.950 C 252.707 49.419,252.798 48.939,252.888 48.883 C 252.987 48.822,252.998 48.875,252.918 49.016 C 252.823 49.183,252.838 49.201,252.971 49.080 C 253.234 48.840,253.307 48.308,253.321 46.532 C 253.328 45.664,253.399 45.021,253.483 45.073 C 253.762 45.245,253.833 44.642,253.833 42.107 C 253.833 39.795,253.862 39.550,254.161 39.293 C 254.774 38.768,254.608 29.875,253.992 30.255 C 253.894 30.315,253.833 29.263,253.833 27.510 C 253.833 25.094,253.796 24.667,253.583 24.667 C 253.385 24.667,253.330 24.415,253.319 23.458 C 253.300 21.781,253.262 21.548,252.945 21.198 C 252.762 20.995,252.667 20.600,252.667 20.040 C 252.667 19.336,252.609 19.171,252.333 19.083 C 252.060 18.997,252.000 18.831,252.000 18.167 C 252.000 17.510,251.938 17.336,251.676 17.253 C 251.447 17.180,251.338 16.970,251.301 16.533 C 251.270 16.152,251.171 15.932,251.044 15.958 C 250.920 15.982,250.794 15.732,250.731 15.333 C 250.672 14.966,250.530 14.667,250.415 14.667 C 250.300 14.667,250.166 14.517,250.118 14.333 C 250.070 14.150,249.912 14.000,249.766 14.000 C 249.615 14.000,249.500 13.862,249.500 13.680 C 249.500 13.184,249.320 12.833,249.066 12.833 C 248.938 12.833,248.833 12.683,248.833 12.500 C 248.833 12.317,248.753 12.167,248.655 12.167 C 248.558 12.167,248.230 11.904,247.928 11.584 C 247.625 11.263,247.146 10.954,246.862 10.897 C 246.578 10.841,246.362 10.709,246.382 10.605 C 246.401 10.499,246.146 10.394,245.800 10.365 C 245.376 10.330,245.153 10.218,245.085 10.006 C 244.983 9.683,240.130 9.464,240.184 9.785 M378.646 9.789 C 378.634 9.813,378.616 9.902,378.604 9.986 C 378.567 10.262,378.428 10.305,377.434 10.351 C 376.537 10.392,375.716 10.823,375.563 11.333 C 375.370 11.979,375.258 12.167,375.064 12.167 C 374.871 12.167,374.833 13.516,374.833 20.500 C 374.833 27.796,374.864 28.833,375.083 28.833 C 375.280 28.833,375.336 29.075,375.346 29.958 C 375.365 31.785,375.455 32.388,375.735 32.593 C 375.918 32.727,376.000 33.053,376.000 33.643 C 376.000 34.389,376.043 34.500,376.333 34.500 C 376.637 34.500,376.818 35.376,376.686 36.208 C 376.676 36.277,376.817 36.333,377.000 36.333 C 377.278 36.333,377.333 36.444,377.333 37.000 C 377.333 37.458,377.406 37.667,377.565 37.667 C 377.697 37.667,377.843 37.915,377.905 38.248 C 377.965 38.567,378.103 38.811,378.211 38.789 C 378.320 38.768,378.434 38.919,378.466 39.125 C 378.503 39.365,378.639 39.500,378.845 39.500 C 379.137 39.500,379.274 39.863,379.182 40.389 C 379.168 40.466,379.309 40.568,379.495 40.617 C 379.803 40.698,379.907 40.869,379.853 41.208 C 379.842 41.277,379.943 41.333,380.077 41.333 C 380.212 41.333,380.402 41.483,380.500 41.667 C 380.598 41.850,380.777 42.000,380.897 42.000 C 381.647 42.000,381.667 42.199,381.667 49.721 C 381.667 56.722,381.672 56.833,382.000 56.833 C 382.222 56.833,382.333 56.944,382.333 57.167 C 382.333 57.350,382.437 57.500,382.564 57.500 C 382.691 57.500,382.834 57.650,382.882 57.833 C 382.948 58.089,383.109 58.167,383.568 58.167 C 383.967 58.167,384.167 58.244,384.167 58.397 C 384.167 58.829,386.017 58.877,386.280 58.452 C 386.345 58.346,386.297 58.333,386.151 58.418 C 386.012 58.498,385.973 58.492,386.056 58.402 C 386.223 58.219,386.255 58.214,387.432 58.188 C 388.215 58.170,388.379 58.113,388.452 57.833 C 388.500 57.650,388.650 57.500,388.785 57.500 C 388.920 57.500,389.070 57.350,389.118 57.167 C 389.166 56.983,389.309 56.833,389.436 56.833 C 389.563 56.833,389.667 56.692,389.667 56.519 C 389.667 56.346,389.816 56.167,390.000 56.118 C 390.324 56.034,390.333 55.891,390.333 50.849 C 390.333 46.462,390.370 45.667,390.572 45.667 C 390.878 45.667,390.955 45.348,390.987 43.933 C 391.014 42.768,391.395 42.011,391.958 42.003 C 392.073 42.001,392.167 41.850,392.167 41.667 C 392.167 41.444,392.278 41.333,392.500 41.333 C 392.722 41.333,392.833 41.222,392.833 41.000 C 392.833 40.778,392.944 40.667,393.167 40.667 C 393.350 40.667,393.500 40.563,393.500 40.437 C 393.500 40.311,393.613 40.114,393.750 40.000 C 393.887 39.886,394.000 39.577,394.000 39.313 C 394.000 38.944,394.077 38.833,394.333 38.833 C 394.598 38.833,394.667 38.722,394.667 38.290 C 394.667 37.927,394.777 37.678,395.000 37.539 C 395.213 37.406,395.333 37.150,395.333 36.832 C 395.333 36.478,395.414 36.333,395.611 36.333 C 395.764 36.333,395.842 36.286,395.784 36.228 C 395.726 36.170,395.747 35.995,395.830 35.840 C 395.913 35.684,395.996 34.948,396.014 34.203 C 396.035 33.317,396.111 32.861,396.232 32.883 C 396.364 32.907,396.417 31.557,396.417 28.167 C 396.417 24.456,396.371 23.426,396.208 23.458 C 396.048 23.490,395.996 22.729,395.983 20.125 C 395.967 16.738,395.893 15.971,395.583 15.991 C 395.484 15.997,395.398 15.229,395.370 14.084 C 395.326 12.304,395.299 12.167,394.995 12.167 C 394.744 12.167,394.667 12.053,394.667 11.687 C 394.667 11.207,394.316 10.740,394.110 10.946 C 394.049 11.006,394.000 10.893,394.000 10.694 C 394.000 10.393,393.904 10.333,393.417 10.333 C 392.944 10.333,392.833 10.270,392.833 10.000 C 392.833 9.626,389.307 9.472,389.082 9.836 C 389.024 9.929,388.905 9.961,388.818 9.907 C 388.730 9.853,388.679 9.906,388.704 10.025 C 388.729 10.145,388.581 10.268,388.375 10.299 C 388.169 10.331,388.000 10.446,388.000 10.555 C 388.000 10.664,387.857 10.843,387.682 10.952 C 387.507 11.061,387.313 11.379,387.252 11.659 C 387.190 11.938,387.034 12.167,386.903 12.167 C 386.557 12.167,386.556 17.198,386.902 17.545 C 387.090 17.733,387.155 18.812,387.229 22.932 C 387.330 28.577,387.334 28.626,387.678 28.844 C 387.885 28.975,387.795 29.062,387.486 29.029 C 387.372 29.017,387.384 28.900,387.268 31.286 C 387.191 32.870,387.126 33.208,386.839 33.495 C 386.460 33.874,386.000 33.944,386.000 33.623 C 386.000 33.508,385.850 33.320,385.667 33.205 C 385.454 33.073,385.333 32.817,385.333 32.499 C 385.333 32.111,385.259 32.000,385.000 32.000 C 384.707 32.000,384.667 31.889,384.667 31.083 C 384.667 30.380,384.609 30.167,384.417 30.167 C 384.220 30.167,384.164 29.925,384.155 29.042 C 384.136 27.208,383.975 26.393,383.668 26.583 C 383.556 26.652,383.500 24.390,383.500 19.828 C 383.500 13.109,383.493 12.967,383.167 12.882 C 382.906 12.813,382.833 12.654,382.833 12.147 C 382.833 11.611,382.776 11.500,382.500 11.500 C 382.317 11.500,382.165 11.406,382.164 11.292 C 382.158 10.900,381.383 10.333,380.852 10.333 C 380.387 10.333,380.250 10.196,380.313 9.793 C 380.330 9.683,378.698 9.679,378.646 9.789 M262.667 10.481 C 262.667 10.562,262.401 10.755,262.077 10.909 C 261.656 11.108,261.459 11.328,261.390 11.677 C 261.336 11.947,261.200 12.167,261.088 12.167 C 260.753 12.167,260.668 15.519,260.667 28.848 C 260.667 43.811,260.786 49.333,261.110 49.333 C 261.256 49.333,261.341 49.564,261.354 50.000 C 261.385 50.985,261.392 51.009,261.708 51.240 C 261.870 51.358,262.000 51.669,262.000 51.937 C 262.000 52.239,262.125 52.498,262.333 52.628 C 262.546 52.761,262.667 53.017,262.667 53.335 C 262.667 53.726,262.740 53.833,263.007 53.833 C 263.195 53.833,263.336 53.927,263.321 54.042 C 263.250 54.586,263.355 55.000,263.564 55.000 C 263.691 55.000,263.834 55.150,263.882 55.333 C 263.930 55.517,264.080 55.667,264.215 55.667 C 264.350 55.667,264.500 55.817,264.548 56.000 C 264.596 56.183,264.755 56.333,264.901 56.333 C 265.047 56.333,265.167 56.446,265.167 56.583 C 265.167 56.721,265.308 56.833,265.481 56.833 C 265.654 56.833,265.833 56.982,265.882 57.167 C 265.934 57.366,266.109 57.500,266.316 57.500 C 266.507 57.500,266.758 57.650,266.872 57.833 C 267.010 58.054,267.261 58.167,267.612 58.167 C 267.978 58.167,268.174 58.260,268.239 58.466 C 268.304 58.669,268.527 58.778,268.933 58.806 C 269.262 58.828,269.703 58.959,269.913 59.096 C 270.405 59.418,274.000 59.418,274.000 59.096 C 274.000 58.975,274.301 58.880,274.761 58.856 C 275.651 58.810,276.392 58.563,276.263 58.354 C 276.213 58.274,276.471 58.161,276.836 58.102 C 277.265 58.034,277.500 57.908,277.500 57.748 C 277.500 57.611,277.649 57.500,277.833 57.500 C 278.056 57.500,278.167 57.389,278.167 57.167 C 278.167 56.978,278.278 56.833,278.422 56.833 C 278.562 56.833,278.719 56.724,278.771 56.590 C 278.822 56.456,279.008 56.300,279.184 56.244 C 279.361 56.188,279.461 56.073,279.409 55.987 C 279.356 55.901,279.435 55.784,279.586 55.726 C 279.736 55.668,279.926 55.443,280.009 55.226 C 280.092 55.009,280.255 54.850,280.371 54.874 C 280.499 54.900,280.604 54.709,280.634 54.392 C 280.669 54.039,280.791 53.840,281.009 53.783 C 281.254 53.719,281.333 53.552,281.333 53.099 C 281.333 52.700,281.410 52.500,281.564 52.500 C 281.857 52.500,281.995 51.984,281.998 50.875 C 281.999 50.209,282.060 50.000,282.250 50.000 C 282.619 50.000,282.630 29.482,282.261 29.176 C 282.064 29.012,282.013 27.928,281.969 22.913 C 281.922 17.409,281.890 16.827,281.630 16.632 C 281.388 16.450,281.340 16.089,281.321 14.292 C 281.299 12.326,281.274 12.167,280.982 12.167 C 280.733 12.167,280.667 12.045,280.667 11.583 C 280.667 11.057,280.600 10.972,280.217 11.012 C 280.152 11.019,280.042 10.869,279.972 10.679 C 279.776 10.149,273.833 10.137,273.833 10.667 C 273.833 10.850,273.777 10.991,273.708 10.980 C 273.363 10.926,273.167 11.025,273.167 11.255 C 273.167 11.396,273.054 11.554,272.917 11.606 C 272.701 11.689,272.667 12.504,272.667 17.530 C 272.667 22.487,272.704 23.394,272.917 23.607 C 273.127 23.817,273.169 24.633,273.181 28.720 C 273.197 34.337,273.190 34.232,273.555 34.636 C 273.942 35.063,273.986 47.667,273.601 47.667 C 273.345 47.667,273.167 48.017,273.167 48.519 C 273.167 48.698,273.054 48.887,272.917 48.940 C 272.779 48.992,272.667 49.140,272.667 49.268 C 272.667 50.011,270.937 49.320,270.614 48.448 C 270.553 48.282,270.436 48.186,270.356 48.236 C 270.275 48.286,270.169 48.022,270.119 47.650 C 270.069 47.278,269.910 46.844,269.766 46.684 C 269.530 46.424,269.503 44.649,269.498 29.614 C 269.494 12.999,269.491 12.833,269.164 12.833 C 268.889 12.833,268.833 12.720,268.833 12.167 C 268.833 11.625,268.775 11.500,268.519 11.500 C 268.346 11.500,268.167 11.351,268.118 11.167 C 268.070 10.983,267.912 10.833,267.766 10.833 C 267.620 10.833,267.500 10.721,267.500 10.583 C 267.500 10.373,267.120 10.333,265.083 10.333 C 263.754 10.333,262.667 10.400,262.667 10.481 M30.770 15.306 C 30.611 15.336,30.412 15.543,30.328 15.764 C 30.244 15.985,30.077 16.167,29.957 16.167 C 29.837 16.167,29.723 16.373,29.703 16.625 C 29.682 16.877,29.555 17.166,29.419 17.266 C 29.283 17.367,29.221 17.498,29.280 17.558 C 29.340 17.618,29.320 17.667,29.236 17.667 C 28.916 17.667,29.052 21.808,29.375 21.893 C 29.584 21.947,29.667 22.137,29.667 22.562 C 29.667 22.983,29.763 23.206,29.998 23.332 C 30.181 23.430,30.312 23.597,30.290 23.703 C 30.268 23.810,30.400 23.928,30.583 23.967 C 30.767 24.006,30.977 24.141,31.050 24.269 C 31.162 24.463,33.230 24.500,43.935 24.500 C 51.762 24.500,56.649 24.440,56.590 24.345 C 56.461 24.135,56.674 24.023,57.439 23.903 C 58.307 23.766,58.244 24.014,58.303 20.528 C 58.359 17.287,58.266 16.000,57.975 16.000 C 57.881 16.000,57.679 15.846,57.527 15.659 C 57.274 15.348,32.265 15.018,30.770 15.306 M299.545 18.000 C 299.702 18.183,300.018 18.333,300.248 18.333 C 300.556 18.333,300.667 18.422,300.667 18.667 C 300.667 18.850,300.723 18.991,300.792 18.980 C 301.137 18.926,301.333 19.025,301.333 19.255 C 301.333 19.396,301.446 19.554,301.583 19.606 C 301.721 19.659,301.833 19.844,301.833 20.018 C 301.833 20.191,301.983 20.483,302.167 20.667 C 302.403 20.903,302.500 21.222,302.500 21.766 C 302.500 22.391,302.561 22.547,302.833 22.618 C 303.137 22.698,303.167 22.846,303.167 24.258 C 303.167 25.664,303.135 25.821,302.833 25.917 C 302.559 26.004,302.500 26.169,302.500 26.850 C 302.500 27.385,302.422 27.707,302.278 27.762 C 302.156 27.809,302.043 27.938,302.028 28.049 C 301.870 29.179,301.768 29.500,301.565 29.500 C 301.431 29.500,301.333 29.670,301.333 29.905 C 301.333 30.163,301.213 30.349,301.003 30.416 C 300.822 30.473,300.681 30.572,300.690 30.635 C 300.739 30.984,300.650 31.497,300.542 31.480 C 300.205 31.427,300.000 31.522,300.000 31.731 C 300.000 31.857,299.850 32.000,299.667 32.048 C 299.483 32.096,299.333 32.255,299.333 32.401 C 299.333 32.629,298.947 32.758,298.468 32.690 C 298.405 32.681,298.307 32.822,298.249 33.003 C 298.191 33.185,297.999 33.333,297.822 33.333 C 297.508 33.333,297.500 33.131,297.500 25.500 L 297.500 17.667 298.380 17.667 C 299.053 17.667,299.326 17.745,299.545 18.000 M242.833 20.000 C 242.833 20.092,242.946 20.167,243.083 20.167 C 243.221 20.167,243.333 20.299,243.333 20.460 C 243.333 20.621,243.483 20.847,243.667 20.961 C 243.939 21.132,244.000 21.350,244.000 22.160 C 244.000 22.828,244.075 23.193,244.231 23.283 C 244.413 23.389,244.481 24.244,244.553 27.333 C 244.604 29.488,244.650 31.277,244.656 31.309 C 244.662 31.342,244.779 31.326,244.917 31.273 C 245.133 31.190,245.167 31.570,245.167 34.094 C 245.167 36.371,245.118 37.029,244.944 37.096 C 244.665 37.203,244.686 36.991,244.573 40.833 C 244.499 43.372,244.425 44.124,244.239 44.268 C 244.068 44.400,244.000 44.819,244.000 45.727 C 244.000 46.781,243.954 47.000,243.734 47.000 C 243.588 47.000,243.430 47.150,243.382 47.333 C 243.270 47.760,242.667 47.782,242.667 47.359 C 242.667 47.190,242.517 46.916,242.333 46.750 C 242.110 46.548,242.000 46.237,242.000 45.808 C 242.000 45.373,241.926 45.167,241.769 45.167 C 241.603 45.167,241.519 44.858,241.469 44.063 C 241.419 43.288,241.316 42.900,241.121 42.757 C 240.886 42.585,240.841 42.177,240.824 40.043 C 240.807 37.817,240.768 37.493,240.486 37.190 C 239.989 36.657,240.019 31.453,240.517 31.761 C 240.600 31.812,240.667 31.780,240.667 31.690 C 240.667 31.601,240.573 31.490,240.458 31.444 C 240.330 31.392,240.358 31.355,240.531 31.346 C 240.787 31.335,240.814 30.968,240.825 27.375 C 240.836 23.954,240.874 23.390,241.104 23.218 C 241.281 23.086,241.400 22.653,241.458 21.927 C 241.520 21.158,241.613 20.833,241.773 20.833 C 241.898 20.833,242.000 20.710,242.000 20.560 C 242.000 20.410,242.131 20.187,242.292 20.065 C 242.644 19.798,242.833 19.775,242.833 20.000 M26.000 31.847 C 25.679 32.029,25.293 32.146,25.143 32.109 C 24.974 32.067,24.799 32.192,24.689 32.434 C 24.579 32.676,24.417 32.791,24.268 32.734 C 24.061 32.654,24.023 33.121,24.007 35.895 C 23.989 39.286,24.060 40.000,24.415 40.000 C 24.532 40.000,24.668 40.152,24.716 40.338 C 24.765 40.524,24.867 40.665,24.944 40.652 C 25.490 40.556,26.027 40.690,25.945 40.903 C 25.895 41.033,25.968 41.183,26.107 41.236 C 26.595 41.423,56.000 41.345,56.000 41.157 C 56.000 41.060,56.077 41.028,56.171 41.086 C 56.265 41.144,56.321 41.092,56.296 40.971 C 56.267 40.834,56.439 40.733,56.750 40.704 C 58.324 40.560,58.334 40.531,58.287 36.073 C 58.246 32.121,58.252 32.142,57.167 32.071 C 56.938 32.056,56.619 32.034,56.458 32.022 C 56.298 32.010,56.167 31.889,56.167 31.753 C 56.167 31.309,26.790 31.400,26.000 31.847 M25.216 48.383 C 24.840 48.760,24.500 49.013,24.500 48.917 C 24.500 48.864,24.394 48.917,24.264 49.035 C 23.802 49.456,23.893 56.240,24.365 56.570 C 24.860 56.917,57.788 56.978,58.133 56.633 C 58.277 56.490,58.333 55.405,58.333 52.806 C 58.333 48.852,58.314 48.771,57.250 48.328 C 56.684 48.093,25.453 48.146,25.216 48.383 " stroke="none" fill="#ab6cfc" fill-rule="evenodd"></path><path id="path1" d="M23.240 7.829 C 22.971 8.194,22.690 8.494,22.617 8.496 C 22.409 8.502,21.000 9.942,21.000 10.148 C 21.000 10.250,20.885 10.333,20.745 10.333 C 20.604 10.333,20.442 10.465,20.384 10.625 C 20.274 10.930,20.134 11.115,19.428 11.883 C 19.193 12.139,19.000 12.458,19.000 12.591 C 19.000 12.724,18.850 12.833,18.667 12.833 C 18.481 12.833,18.333 12.944,18.333 13.083 C 18.333 13.221,18.221 13.333,18.083 13.333 C 17.944 13.333,17.833 13.481,17.833 13.667 C 17.833 13.889,17.722 14.000,17.500 14.000 C 17.278 14.000,17.167 14.111,17.167 14.333 C 17.167 14.556,17.056 14.667,16.833 14.667 C 16.611 14.667,16.500 14.778,16.500 15.000 C 16.500 15.183,16.444 15.324,16.375 15.314 C 16.031 15.259,15.833 15.358,15.833 15.583 C 15.833 15.721,15.721 15.833,15.583 15.833 C 15.444 15.833,15.333 15.981,15.333 16.167 C 15.333 16.389,15.222 16.500,15.000 16.500 C 14.778 16.500,14.667 16.611,14.667 16.833 C 14.667 17.049,14.556 17.167,14.353 17.167 C 14.178 17.167,14.000 17.316,13.950 17.505 C 13.902 17.691,13.762 17.822,13.639 17.796 C 13.517 17.771,13.438 17.850,13.463 17.973 C 13.489 18.095,13.357 18.235,13.171 18.284 C 12.983 18.333,12.833 18.511,12.833 18.686 C 12.833 18.941,12.708 19.000,12.167 19.000 C 11.611 19.000,11.500 18.944,11.500 18.667 C 11.500 18.444,11.389 18.333,11.167 18.333 C 10.983 18.333,10.832 18.240,10.830 18.125 C 10.827 17.871,10.108 17.167,9.852 17.167 C 9.750 17.167,9.667 17.017,9.667 16.833 C 9.667 16.611,9.556 16.500,9.333 16.500 C 9.150 16.500,9.000 16.393,9.000 16.261 C 9.000 16.130,8.850 15.975,8.667 15.917 C 8.483 15.858,8.333 15.703,8.333 15.572 C 8.333 15.441,8.230 15.333,8.103 15.333 C 7.976 15.333,7.833 15.183,7.785 15.000 C 7.706 14.697,7.558 14.667,6.172 14.667 C 5.245 14.667,4.686 14.729,4.745 14.826 C 4.800 14.914,4.655 15.109,4.423 15.261 C 4.192 15.412,4.044 15.603,4.095 15.685 C 4.145 15.767,4.032 15.833,3.843 15.833 C 3.270 15.833,3.322 21.076,3.901 21.625 C 4.119 21.831,4.375 22.000,4.471 22.000 C 4.566 22.000,4.692 22.150,4.750 22.333 C 4.808 22.517,4.954 22.667,5.075 22.667 C 5.196 22.667,5.334 22.817,5.382 23.000 C 5.430 23.183,5.588 23.333,5.734 23.333 C 5.880 23.333,6.000 23.404,6.000 23.491 C 6.000 23.721,6.755 24.500,6.977 24.500 C 7.082 24.500,7.167 24.615,7.167 24.755 C 7.167 24.896,7.480 25.289,7.862 25.630 C 8.244 25.971,8.722 26.419,8.923 26.625 C 9.124 26.831,9.373 27.000,9.477 27.000 C 9.582 27.000,9.667 27.115,9.667 27.255 C 9.667 27.396,9.798 27.558,9.958 27.617 C 10.119 27.675,10.429 27.861,10.647 28.028 C 11.247 28.488,13.163 28.468,13.285 28.000 C 13.346 27.765,13.512 27.667,13.847 27.667 C 14.151 27.667,14.386 27.547,14.500 27.333 C 14.598 27.150,14.788 27.000,14.923 27.000 C 15.057 27.000,15.167 26.890,15.167 26.756 C 15.167 26.622,15.317 26.431,15.500 26.333 C 15.683 26.235,15.833 26.045,15.833 25.911 C 15.833 25.777,15.946 25.667,16.083 25.667 C 16.221 25.667,16.333 25.603,16.333 25.526 C 16.333 25.449,16.521 25.167,16.750 24.901 C 16.979 24.635,17.166 24.332,17.166 24.228 C 17.167 24.124,17.317 24.000,17.500 23.952 C 17.683 23.904,17.833 23.745,17.833 23.599 C 17.833 23.453,17.946 23.333,18.083 23.333 C 18.222 23.333,18.333 23.185,18.333 23.000 C 18.333 22.778,18.444 22.667,18.667 22.667 C 18.889 22.667,19.000 22.556,19.000 22.333 C 19.000 22.111,19.111 22.000,19.333 22.000 C 19.519 22.000,19.667 21.889,19.667 21.750 C 19.667 21.613,19.779 21.500,19.917 21.500 C 20.056 21.500,20.167 21.352,20.167 21.167 C 20.167 20.944,20.278 20.833,20.500 20.833 C 20.722 20.833,20.833 20.722,20.833 20.500 C 20.833 20.278,20.944 20.167,21.167 20.167 C 21.352 20.167,21.500 20.056,21.500 19.917 C 21.500 19.779,21.620 19.667,21.766 19.667 C 21.912 19.667,22.070 19.517,22.118 19.333 C 22.166 19.150,22.309 19.000,22.436 19.000 C 22.563 19.000,22.667 18.850,22.667 18.667 C 22.667 18.454,22.778 18.333,22.974 18.333 C 23.280 18.333,23.540 18.143,24.850 16.958 C 25.230 16.615,25.607 16.333,25.687 16.333 C 25.768 16.333,25.833 16.221,25.833 16.083 C 25.833 15.946,25.941 15.833,26.072 15.833 C 26.203 15.833,26.358 15.683,26.417 15.500 C 26.475 15.317,26.630 15.167,26.761 15.167 C 26.893 15.167,27.000 15.047,27.000 14.901 C 27.000 14.755,27.150 14.596,27.333 14.548 C 27.517 14.500,27.667 14.362,27.667 14.242 C 27.667 14.121,27.817 13.975,28.000 13.917 C 28.313 13.817,28.333 13.665,28.332 11.447 L 28.331 9.083 27.762 8.696 C 27.448 8.482,27.018 8.052,26.804 7.738 C 26.417 7.170,26.415 7.169,25.074 7.168 L 23.731 7.167 23.240 7.829 M105.667 9.333 C 105.667 9.626,105.556 9.667,104.750 9.667 C 103.944 9.667,103.833 9.707,103.833 10.000 C 103.833 10.222,103.722 10.333,103.500 10.333 C 103.315 10.333,103.167 10.444,103.167 10.583 C 103.167 10.748,103.002 10.833,102.687 10.833 C 102.207 10.833,101.740 11.184,101.946 11.390 C 102.006 11.451,101.893 11.500,101.694 11.500 C 101.444 11.500,101.333 11.603,101.333 11.833 C 101.333 12.056,101.222 12.167,101.000 12.167 C 100.765 12.167,100.667 12.278,100.667 12.543 C 100.667 12.750,100.517 13.013,100.333 13.128 C 100.150 13.242,100.000 13.486,100.000 13.668 C 100.000 13.851,99.896 14.000,99.768 14.000 C 99.499 14.000,99.333 14.355,99.333 14.930 C 99.333 15.177,99.237 15.333,99.083 15.333 C 98.891 15.333,98.833 15.546,98.833 16.250 C 98.833 17.056,98.793 17.167,98.500 17.167 C 98.207 17.167,98.167 17.278,98.167 18.083 C 98.167 18.778,98.086 19.081,97.833 19.333 C 97.546 19.620,97.500 19.889,97.500 21.260 C 97.500 22.144,97.434 22.812,97.352 22.762 C 97.189 22.661,96.807 23.049,96.847 23.274 C 97.004 24.148,96.799 27.167,96.583 27.167 C 96.371 27.167,96.333 27.579,96.333 29.877 C 96.333 32.406,96.311 32.600,96.000 32.795 C 95.675 32.998,95.667 33.183,95.667 40.668 C 95.667 47.083,95.629 48.333,95.436 48.333 C 94.865 48.333,94.772 55.472,95.341 55.620 C 95.609 55.690,95.667 55.852,95.667 56.535 C 95.667 57.224,95.723 57.379,96.000 57.452 C 96.184 57.500,96.333 57.679,96.333 57.853 C 96.333 58.029,96.450 58.167,96.599 58.167 C 96.746 58.167,97.084 58.323,97.352 58.513 C 97.987 58.965,102.047 58.947,102.389 58.490 C 102.496 58.346,102.715 58.180,102.875 58.120 C 103.035 58.060,103.167 57.896,103.167 57.755 C 103.167 57.615,103.279 57.500,103.417 57.500 C 103.593 57.500,103.667 57.322,103.667 56.901 C 103.667 56.442,103.745 56.282,104.000 56.215 C 104.324 56.130,104.333 55.988,104.333 50.897 L 104.333 45.667 107.167 45.667 L 110.000 45.667 110.000 47.182 C 110.000 48.558,110.031 48.706,110.333 48.785 C 110.653 48.869,110.667 49.012,110.667 52.258 C 110.667 55.044,110.711 55.687,110.917 55.893 C 111.054 56.030,111.167 56.302,111.167 56.496 C 111.167 56.690,111.354 57.023,111.583 57.235 C 111.813 57.448,112.000 57.703,112.000 57.803 C 112.000 57.903,112.263 58.034,112.583 58.094 C 112.904 58.155,113.167 58.300,113.167 58.417 C 113.167 58.659,114.043 58.800,114.917 58.698 C 115.271 58.657,115.500 58.539,115.500 58.398 C 115.500 58.231,115.735 58.167,116.345 58.167 C 117.144 58.167,118.667 57.073,118.667 56.499 C 118.667 56.429,118.817 56.333,119.000 56.285 C 119.326 56.200,119.333 56.058,119.333 49.682 C 119.333 43.389,119.322 43.155,119.000 42.833 C 118.680 42.514,118.667 42.278,118.667 37.068 C 118.667 31.776,118.658 31.633,118.333 31.548 C 118.009 31.463,118.000 31.321,118.000 26.309 C 118.000 21.882,117.965 21.143,117.750 21.060 C 117.551 20.984,117.500 20.629,117.500 19.329 C 117.500 17.555,117.422 17.167,117.066 17.167 C 116.896 17.167,116.833 16.924,116.833 16.261 C 116.833 15.502,116.779 15.339,116.500 15.250 C 116.252 15.171,116.167 14.998,116.167 14.572 C 116.167 14.111,116.102 14.000,115.833 14.000 C 115.563 14.000,115.500 13.889,115.500 13.417 C 115.500 13.033,115.422 12.833,115.271 12.833 C 115.145 12.833,114.998 12.616,114.945 12.350 C 114.822 11.734,114.196 11.056,113.617 10.910 C 113.369 10.848,113.167 10.693,113.167 10.565 C 113.167 10.432,112.998 10.333,112.769 10.333 C 112.512 10.333,112.341 10.216,112.285 10.000 C 112.214 9.729,112.058 9.667,111.452 9.667 C 110.846 9.667,110.689 9.604,110.618 9.333 C 110.536 9.019,110.391 9.000,108.099 9.000 C 105.778 9.000,105.667 9.015,105.667 9.333 M71.083 10.000 C 70.895 10.208,70.570 10.333,70.219 10.333 C 69.872 10.333,69.619 10.429,69.560 10.583 C 69.508 10.721,69.279 10.833,69.053 10.833 C 68.640 10.833,67.667 11.644,67.667 11.987 C 67.667 12.086,67.562 12.167,67.434 12.167 C 67.180 12.167,67.000 12.517,67.000 13.014 C 67.000 13.189,66.896 13.333,66.768 13.333 C 66.443 13.333,66.333 13.709,66.333 14.827 C 66.333 15.482,66.253 15.859,66.083 16.000 C 65.712 16.309,65.709 26.087,66.081 26.497 C 66.294 26.733,66.330 28.160,66.336 36.716 C 66.343 46.435,66.351 46.664,66.672 46.836 C 66.985 47.004,67.000 47.204,67.000 51.299 C 67.000 55.406,67.014 55.595,67.333 55.795 C 67.578 55.948,67.667 56.183,67.667 56.684 C 67.667 57.213,67.737 57.383,67.985 57.448 C 68.159 57.493,68.340 57.674,68.386 57.849 C 68.444 58.072,68.617 58.167,68.965 58.167 C 69.321 58.167,69.486 58.261,69.548 58.500 C 69.699 59.077,75.667 58.977,75.667 58.397 C 75.667 58.229,75.914 58.167,76.583 58.167 C 77.389 58.167,77.500 58.126,77.500 57.833 C 77.500 57.540,77.611 57.500,78.417 57.500 C 79.222 57.500,79.333 57.460,79.333 57.167 C 79.333 56.896,79.444 56.833,79.922 56.833 C 80.291 56.833,80.546 56.740,80.606 56.583 C 80.659 56.446,80.814 56.333,80.950 56.333 C 81.086 56.333,81.237 56.183,81.285 56.000 C 81.333 55.816,81.512 55.667,81.686 55.667 C 81.889 55.667,82.000 55.549,82.000 55.333 C 82.000 55.111,82.111 55.000,82.335 55.000 C 82.519 55.000,82.798 54.850,82.955 54.667 C 83.112 54.483,83.328 54.333,83.434 54.333 C 83.541 54.333,83.667 54.183,83.715 54.000 C 83.763 53.817,83.918 53.667,84.060 53.667 C 84.223 53.667,84.359 53.452,84.428 53.083 C 84.490 52.749,84.636 52.500,84.769 52.500 C 84.896 52.500,85.000 52.396,85.000 52.269 C 85.000 52.143,85.150 52.000,85.333 51.952 C 85.533 51.900,85.667 51.724,85.667 51.516 C 85.667 51.321,85.774 51.167,85.909 51.167 C 86.054 51.167,86.195 50.933,86.261 50.583 C 86.324 50.249,86.469 50.000,86.602 50.000 C 86.755 50.000,86.833 49.803,86.833 49.417 C 86.833 48.944,86.897 48.833,87.167 48.833 C 87.443 48.833,87.500 48.722,87.500 48.186 C 87.500 47.679,87.572 47.520,87.833 47.452 C 88.110 47.379,88.167 47.224,88.167 46.535 C 88.167 45.846,88.223 45.691,88.500 45.618 C 88.780 45.545,88.834 45.389,88.839 44.641 C 88.842 44.123,88.946 43.614,89.089 43.426 C 89.268 43.189,89.333 42.630,89.333 41.321 C 89.333 39.679,89.360 39.532,89.667 39.452 C 89.991 39.367,90.000 39.224,90.000 34.434 C 90.000 29.683,89.988 29.495,89.667 29.295 C 89.357 29.101,89.333 28.906,89.333 26.543 C 89.333 24.394,89.295 24.000,89.083 24.000 C 88.883 24.000,88.833 23.750,88.833 22.750 C 88.833 21.722,88.774 21.441,88.500 21.167 C 88.294 20.960,88.167 20.611,88.167 20.250 C 88.167 19.889,88.040 19.540,87.833 19.333 C 87.631 19.131,87.500 18.778,87.500 18.436 C 87.500 18.012,87.417 17.851,87.167 17.785 C 86.911 17.718,86.833 17.558,86.833 17.099 C 86.833 16.699,86.756 16.500,86.602 16.500 C 86.469 16.500,86.324 16.251,86.261 15.917 C 86.195 15.567,86.054 15.333,85.909 15.333 C 85.776 15.333,85.667 15.183,85.667 15.000 C 85.667 14.778,85.556 14.667,85.333 14.667 C 85.111 14.667,85.000 14.556,85.000 14.333 C 85.000 14.148,84.889 14.000,84.750 14.000 C 84.612 14.000,84.500 13.880,84.500 13.734 C 84.500 13.588,84.350 13.430,84.167 13.382 C 83.983 13.334,83.833 13.191,83.833 13.064 C 83.833 12.937,83.683 12.833,83.500 12.833 C 83.278 12.833,83.167 12.722,83.167 12.500 C 83.167 12.278,83.056 12.167,82.833 12.167 C 82.611 12.167,82.500 12.056,82.500 11.833 C 82.500 11.611,82.389 11.500,82.167 11.500 C 81.983 11.500,81.833 11.396,81.833 11.269 C 81.833 11.136,81.584 10.990,81.250 10.928 C 80.901 10.862,80.667 10.721,80.667 10.576 C 80.667 10.410,80.483 10.333,80.089 10.333 C 79.682 10.333,79.459 10.235,79.333 10.000 C 79.163 9.681,78.984 9.667,75.270 9.667 C 71.597 9.667,71.369 9.685,71.083 10.000 M126.215 10.000 C 126.149 10.250,125.988 10.333,125.564 10.333 C 125.159 10.333,125.000 10.408,125.000 10.599 C 125.000 10.745,124.850 10.904,124.667 10.952 C 124.385 11.025,124.333 11.179,124.333 11.936 C 124.333 12.716,124.291 12.833,124.007 12.833 C 123.500 12.833,123.499 20.166,124.006 20.673 C 124.327 20.993,124.333 21.321,124.333 36.417 C 124.333 51.722,124.336 51.833,124.667 51.833 C 124.985 51.833,125.000 51.944,125.000 54.333 C 125.000 56.444,125.039 56.833,125.250 56.833 C 125.389 56.833,125.500 56.981,125.500 57.167 C 125.500 57.389,125.611 57.500,125.833 57.500 C 126.056 57.500,126.167 57.611,126.167 57.833 C 126.167 58.063,126.278 58.167,126.523 58.167 C 126.719 58.167,126.971 58.292,127.083 58.444 C 127.369 58.835,129.204 58.835,129.636 58.444 C 129.834 58.265,130.234 58.166,130.763 58.164 C 131.984 58.161,132.333 58.028,132.333 57.565 C 132.333 57.348,132.483 57.076,132.667 56.961 C 132.850 56.847,133.000 56.659,133.000 56.543 C 133.000 56.428,133.150 56.183,133.333 56.000 C 133.983 55.351,133.798 42.167,133.140 42.167 C 133.063 42.167,133.000 35.828,133.000 28.082 C 133.000 14.203,132.995 13.993,132.667 13.711 C 132.406 13.488,132.333 13.220,132.333 12.481 C 132.333 11.823,132.262 11.508,132.099 11.446 C 131.970 11.396,131.814 11.126,131.752 10.845 C 131.654 10.396,131.571 10.333,131.070 10.333 C 130.611 10.333,130.500 10.268,130.500 10.000 C 130.500 9.684,130.389 9.667,128.401 9.667 C 126.442 9.667,126.296 9.689,126.215 10.000 M143.333 10.000 C 143.150 10.183,142.859 10.333,142.686 10.333 C 142.507 10.333,142.333 10.484,142.281 10.683 C 142.230 10.876,142.117 10.989,142.029 10.935 C 141.942 10.881,141.820 11.102,141.759 11.427 C 141.698 11.752,141.540 12.059,141.407 12.110 C 141.209 12.186,141.167 12.787,141.167 15.564 C 141.167 18.735,141.148 18.940,140.833 19.167 C 140.504 19.404,140.500 19.598,140.500 36.802 C 140.500 54.058,140.503 54.199,140.833 54.285 C 141.094 54.353,141.167 54.512,141.167 55.019 C 141.167 55.501,141.235 55.667,141.432 55.667 C 141.578 55.667,141.737 55.817,141.785 56.000 C 141.833 56.183,141.937 56.333,142.015 56.333 C 142.094 56.333,142.276 56.561,142.420 56.839 C 142.592 57.171,142.850 57.378,143.174 57.443 C 143.510 57.510,143.667 57.641,143.667 57.854 C 143.667 58.098,143.790 58.167,144.230 58.167 C 144.539 58.167,144.880 58.273,144.988 58.402 C 145.426 58.930,149.167 58.928,149.167 58.400 C 149.167 58.208,149.732 58.167,152.333 58.167 C 155.278 58.167,155.523 58.143,155.833 57.833 C 156.017 57.650,156.279 57.500,156.417 57.500 C 156.556 57.500,156.667 57.352,156.667 57.167 C 156.667 56.944,156.778 56.833,157.000 56.833 C 157.194 56.833,157.333 56.722,157.333 56.568 C 157.333 56.422,157.483 56.112,157.667 55.879 C 157.951 55.517,158.000 55.203,158.000 53.728 C 158.000 52.222,157.957 51.957,157.667 51.667 C 157.483 51.483,157.333 51.183,157.333 51.000 C 157.333 50.778,157.222 50.667,157.000 50.667 C 156.817 50.667,156.667 50.559,156.667 50.428 C 156.667 50.297,156.524 50.144,156.349 50.088 C 156.174 50.033,155.991 49.885,155.943 49.759 C 155.805 49.400,150.700 49.385,150.563 49.743 C 150.497 49.914,150.246 50.000,149.816 50.000 L 149.167 50.000 149.167 37.250 C 149.167 26.463,149.202 24.500,149.399 24.500 C 149.805 24.500,149.833 24.088,149.833 18.070 C 149.833 12.339,149.824 12.167,149.510 12.167 C 149.257 12.167,149.176 12.031,149.135 11.542 C 149.101 11.127,149.008 10.932,148.861 10.963 C 148.738 10.989,148.598 10.857,148.550 10.671 C 148.483 10.416,148.324 10.333,147.897 10.333 C 147.444 10.333,147.333 10.268,147.333 10.000 C 147.333 9.687,147.222 9.667,145.500 9.667 C 143.889 9.667,143.626 9.707,143.333 10.000 M167.333 10.029 C 167.333 10.300,166.039 10.492,165.130 10.355 C 165.064 10.345,164.930 10.486,164.832 10.668 C 164.735 10.851,164.542 11.000,164.403 11.000 C 164.265 11.000,164.164 11.094,164.179 11.208 C 164.263 11.854,164.149 12.167,163.830 12.167 C 163.498 12.167,163.494 12.251,163.503 20.252 C 163.512 28.496,163.529 28.833,163.934 28.833 C 164.133 28.833,164.324 31.580,164.182 32.389 C 164.168 32.466,164.309 32.568,164.495 32.617 C 164.782 32.692,164.833 32.841,164.833 33.603 C 164.833 34.389,164.875 34.500,165.167 34.500 C 165.460 34.500,165.500 34.611,165.500 35.417 C 165.500 36.120,165.558 36.333,165.750 36.333 C 165.926 36.333,166.000 36.511,166.000 36.932 C 166.000 37.391,166.078 37.552,166.333 37.618 C 166.572 37.681,166.667 37.846,166.667 38.202 C 166.667 38.558,166.761 38.722,167.000 38.785 C 167.184 38.833,167.333 39.012,167.333 39.186 C 167.333 39.359,167.438 39.500,167.566 39.500 C 167.820 39.500,168.000 39.850,168.000 40.347 C 168.000 40.523,168.112 40.667,168.250 40.667 C 168.387 40.667,168.500 40.786,168.500 40.932 C 168.500 41.078,168.650 41.237,168.833 41.285 C 169.017 41.333,169.167 41.478,169.167 41.607 C 169.167 41.736,169.338 41.907,169.549 41.987 C 170.400 42.310,170.388 42.204,170.361 49.382 C 170.335 56.163,170.370 56.833,170.750 56.833 C 170.866 56.833,171.000 56.983,171.048 57.167 C 171.096 57.350,171.255 57.500,171.401 57.500 C 171.556 57.500,171.667 57.639,171.667 57.833 C 171.667 58.078,171.778 58.167,172.083 58.167 C 172.313 58.167,172.500 58.236,172.500 58.320 C 172.500 58.852,175.076 58.931,175.278 58.405 C 175.341 58.238,175.644 58.167,176.283 58.167 C 177.058 58.167,177.211 58.116,177.285 57.833 C 177.333 57.650,177.476 57.500,177.603 57.500 C 177.730 57.500,177.833 57.350,177.833 57.167 C 177.833 56.944,177.944 56.833,178.167 56.833 C 178.389 56.833,178.500 56.722,178.500 56.500 C 178.500 56.317,178.604 56.167,178.732 56.167 C 179.134 56.167,179.167 55.757,179.167 50.653 C 179.167 46.533,179.206 45.667,179.396 45.667 C 179.675 45.667,179.833 44.944,179.833 43.664 C 179.833 42.963,179.901 42.676,180.083 42.606 C 180.221 42.554,180.333 42.396,180.333 42.255 C 180.333 42.111,180.478 42.000,180.667 42.000 C 180.889 42.000,181.000 41.889,181.000 41.667 C 181.000 41.444,181.111 41.333,181.333 41.333 C 181.556 41.333,181.667 41.222,181.667 41.000 C 181.667 40.815,181.778 40.667,181.917 40.667 C 182.054 40.667,182.167 40.559,182.167 40.428 C 182.167 40.297,182.317 40.142,182.500 40.083 C 182.748 40.005,182.833 39.831,182.833 39.405 C 182.833 38.944,182.898 38.833,183.167 38.833 C 183.434 38.833,183.500 38.722,183.500 38.269 C 183.500 37.846,183.583 37.684,183.833 37.618 C 184.089 37.552,184.167 37.391,184.167 36.932 C 184.167 36.511,184.241 36.333,184.417 36.333 C 184.621 36.333,184.667 36.046,184.667 34.750 C 184.667 33.508,184.717 33.167,184.899 33.167 C 185.495 33.167,185.594 23.537,185.000 23.382 C 184.680 23.298,184.667 23.154,184.667 19.665 C 184.667 16.593,184.628 16.021,184.417 15.940 C 184.216 15.863,184.167 15.493,184.167 14.073 C 184.167 12.459,184.138 12.295,183.842 12.217 C 183.609 12.156,183.504 11.961,183.467 11.525 C 183.434 11.123,183.341 10.932,183.194 10.963 C 183.072 10.989,182.932 10.857,182.883 10.671 C 182.816 10.416,182.657 10.333,182.231 10.333 C 181.778 10.333,181.667 10.268,181.667 10.000 C 181.667 9.487,177.782 9.487,177.461 10.000 C 177.347 10.183,177.156 10.333,177.038 10.333 C 176.920 10.333,176.781 10.443,176.729 10.577 C 176.678 10.711,176.494 10.866,176.321 10.920 C 176.148 10.975,176.014 11.072,176.023 11.135 C 176.102 11.691,175.958 12.139,175.677 12.212 C 175.120 12.358,175.210 17.667,175.769 17.667 C 175.960 17.667,176.004 18.551,176.025 22.792 C 176.038 25.610,176.065 28.029,176.083 28.167 C 176.102 28.304,176.128 28.510,176.142 28.625 C 176.156 28.740,176.298 28.839,176.458 28.845 C 176.705 28.855,176.699 28.877,176.417 28.988 C 176.046 29.133,176.059 29.051,176.025 31.542 C 176.002 33.214,175.978 33.333,175.667 33.333 C 175.483 33.333,175.352 33.423,175.375 33.532 C 175.398 33.641,175.285 33.759,175.125 33.794 C 174.961 33.830,174.833 33.760,174.833 33.636 C 174.833 33.513,174.683 33.320,174.500 33.205 C 174.306 33.084,174.167 32.817,174.167 32.566 C 174.167 32.276,174.058 32.107,173.833 32.048 C 173.552 31.975,173.500 31.821,173.500 31.064 C 173.500 30.278,173.459 30.167,173.167 30.167 C 172.854 30.167,172.833 30.056,172.833 28.411 C 172.833 27.005,172.784 26.637,172.583 26.560 C 172.367 26.477,172.333 25.561,172.333 19.717 C 172.333 13.109,172.326 12.967,172.000 12.882 C 171.739 12.813,171.667 12.654,171.667 12.147 C 171.667 11.611,171.609 11.500,171.333 11.500 C 171.111 11.500,171.000 11.389,171.000 11.167 C 171.000 10.944,170.889 10.833,170.667 10.833 C 170.481 10.833,170.333 10.722,170.333 10.583 C 170.333 10.409,170.157 10.333,169.750 10.333 C 169.273 10.333,169.167 10.271,169.167 9.991 C 169.167 9.684,169.075 9.653,168.250 9.687 C 167.487 9.718,167.333 9.775,167.333 10.029 M75.723 19.241 C 75.774 19.373,76.082 19.532,76.408 19.593 C 76.749 19.657,77.000 19.802,77.000 19.935 C 77.000 20.063,77.107 20.167,77.239 20.167 C 77.370 20.167,77.525 20.317,77.583 20.500 C 77.642 20.683,77.797 20.833,77.928 20.833 C 78.059 20.833,78.167 20.953,78.167 21.099 C 78.167 21.245,78.317 21.404,78.500 21.452 C 78.739 21.514,78.833 21.679,78.833 22.035 C 78.833 22.391,78.928 22.556,79.167 22.618 C 79.431 22.687,79.500 22.846,79.500 23.381 C 79.500 23.753,79.604 24.175,79.731 24.320 C 79.857 24.465,80.000 25.066,80.048 25.657 C 80.104 26.358,80.224 26.797,80.394 26.921 C 80.609 27.078,80.658 27.566,80.675 29.730 C 80.694 32.115,80.725 32.367,81.015 32.548 C 81.516 32.861,81.502 37.584,81.000 37.715 C 80.695 37.795,80.667 37.942,80.667 39.479 C 80.667 40.982,80.632 41.173,80.335 41.332 C 80.153 41.430,80.011 41.564,80.021 41.630 C 80.116 42.255,79.967 43.327,79.792 43.292 C 79.661 43.266,79.564 43.484,79.532 43.875 C 79.491 44.365,79.410 44.500,79.157 44.500 C 78.898 44.500,78.833 44.617,78.833 45.083 C 78.833 45.506,78.760 45.667,78.568 45.667 C 78.422 45.667,78.263 45.817,78.215 46.000 C 78.167 46.183,78.024 46.333,77.897 46.333 C 77.770 46.333,77.667 46.443,77.667 46.577 C 77.667 46.712,77.517 46.902,77.333 47.000 C 77.150 47.098,77.000 47.288,77.000 47.423 C 77.000 47.557,76.850 47.667,76.667 47.667 C 76.483 47.667,76.333 47.770,76.333 47.897 C 76.333 48.024,76.183 48.167,76.000 48.215 C 75.678 48.299,75.667 48.220,75.667 45.818 C 75.667 43.444,75.652 43.333,75.333 43.333 C 75.003 43.333,75.000 43.222,75.000 31.167 C 75.000 19.340,75.009 19.000,75.316 19.000 C 75.489 19.000,75.673 19.108,75.723 19.241 M108.452 20.527 C 108.561 20.659,108.655 21.672,108.681 23.000 C 108.736 25.756,108.809 26.333,109.105 26.333 C 109.294 26.333,109.333 27.264,109.333 31.667 L 109.333 37.000 107.125 37.000 L 104.917 37.000 104.966 33.888 C 105.008 31.183,105.052 30.749,105.299 30.568 C 105.534 30.397,105.593 30.011,105.639 28.347 C 105.683 26.747,105.743 26.333,105.931 26.333 C 106.117 26.333,106.167 26.017,106.167 24.839 C 106.167 23.516,106.205 23.325,106.500 23.167 C 106.780 23.017,106.833 22.818,106.833 21.930 C 106.833 21.012,106.877 20.861,107.167 20.785 C 107.422 20.718,107.500 20.558,107.500 20.099 C 107.500 19.678,107.574 19.500,107.750 19.500 C 107.888 19.500,108.009 19.369,108.021 19.208 C 108.032 19.048,108.093 19.229,108.155 19.611 C 108.218 19.992,108.351 20.405,108.452 20.527 M11.517 31.729 C 11.413 31.855,11.046 32.003,10.702 32.058 C 9.995 32.171,9.000 33.269,9.000 33.937 C 9.000 34.144,8.925 34.360,8.833 34.417 C 8.738 34.476,8.667 35.332,8.667 36.417 C 8.667 37.502,8.738 38.358,8.833 38.417 C 8.925 38.473,9.000 38.660,9.000 38.831 C 9.000 39.003,9.131 39.274,9.291 39.433 C 9.450 39.593,9.658 39.880,9.751 40.070 C 9.845 40.261,10.164 40.488,10.461 40.576 C 10.757 40.664,11.000 40.825,11.000 40.933 C 11.000 41.468,15.779 41.550,16.285 41.023 C 16.449 40.853,16.775 40.668,17.008 40.612 C 17.278 40.548,17.536 40.295,17.714 39.922 C 17.868 39.598,18.071 39.333,18.164 39.333 C 18.272 39.333,18.333 38.254,18.333 36.333 C 18.333 33.852,18.292 33.333,18.097 33.333 C 17.966 33.333,17.810 33.108,17.750 32.832 C 17.629 32.280,17.243 32.000,16.606 32.000 C 16.378 32.000,16.078 31.887,15.940 31.750 C 15.594 31.403,11.802 31.386,11.517 31.729 M10.419 48.494 C 10.359 48.681,10.171 48.833,10.000 48.833 C 9.806 48.833,9.668 48.974,9.633 49.208 C 9.601 49.415,9.489 49.566,9.383 49.546 C 9.278 49.525,9.143 49.731,9.083 50.002 C 9.023 50.274,8.905 50.539,8.821 50.591 C 8.618 50.717,8.621 54.254,8.824 54.627 C 8.911 54.786,9.027 55.198,9.082 55.542 C 9.144 55.932,9.273 56.167,9.424 56.167 C 9.558 56.167,9.667 56.317,9.667 56.500 C 9.667 56.824,9.775 56.833,13.625 56.826 L 17.583 56.819 17.958 56.231 C 18.422 55.504,18.542 50.233,18.105 49.796 C 17.980 49.670,17.825 49.403,17.761 49.201 C 17.697 48.999,17.555 48.833,17.446 48.833 C 17.336 48.833,17.157 48.689,17.047 48.513 C 16.728 48.002,10.580 47.984,10.419 48.494 " stroke="none" fill="#04b47c" fill-rule="evenodd"></path><path id="path2" d="" stroke="none" fill="#8090100" fill-rule="evenodd"></path><path id="path3" d="" stroke="none" fill="#8090100" fill-rule="evenodd"></path><path id="path4" d="" stroke="none" fill="#8090100" fill-rule="evenodd"></path></g></svg>